<svg version="1.1" xmlns="http://www.w3.org/2000/svg" xmlns:xlink="http://www.w3.org/1999/xlink" width="50px" height="50px" viewBox="0,0,256,256"><g fill="#ffffff" fill-rule="nonzero" stroke="none" stroke-width="1" stroke-linecap="butt" stroke-linejoin="miter" stroke-miterlimit="10" stroke-dasharray="" stroke-dashoffset="0" font-family="none" font-weight="none" font-size="none" text-anchor="none" style="mix-blend-mode: normal"><g transform="scale(5.12,5.12)"><path d="M25,2c-12.69141,0 -23,10.30859 -23,23c0,12.69141 10.30859,23 23,23c12.69141,0 23,-10.30859 23,-23c0,-12.69141 -10.30859,-23 -23,-23zM25,4c11.60938,0 21,9.39063 21,21c0,11.60938 -9.39062,21 -21,21c-11.60937,0 -21,-9.39062 -21,-21c0,-11.60937 9.39063,-21 21,-21zM14.90625,20.96875c-0.04297,0.00781 -0.08594,0.01953 -0.125,0.03125c-0.375,0.06641 -0.67578,0.33984 -0.78125,0.70313c-0.10547,0.36719 0.00391,0.75781 0.28125,1.01563l10,10c0.1875,0.19531 0.44922,0.30469 0.71875,0.30469c0.26953,0 0.53125,-0.10937 0.71875,-0.30469l10,-10c0.39844,-0.39844 0.39844,-1.03906 0,-1.4375c-0.39844,-0.39844 -1.03906,-0.39844 -1.4375,0l-9.28125,9.28125l-9.28125,-9.28125c-0.20703,-0.22266 -0.50781,-0.33594 -0.8125,-0.3125z"></path></g></g></svg>