<svg xmlns="http://www.w3.org/2000/svg" xmlns:xlink="http://www.w3.org/1999/xlink" viewBox="0 0 457.4 154.8"><defs><path id="reuse-0" d="M394.9 123z"/></defs><style>.st0{fill:#a4a4a4}.st1{fill:#e28b53}.st2{fill:#e3ad71}.st3{fill:#f8f8f6}.st4{fill:#efefef}.st5{fill:#ff9129}.st6{fill:#ffd1a4}.st7{fill:#d9d9da}.st8{fill:#9eb99f}.st10{fill:#ff9ede}.st11{fill:#77daff}.st12{fill:#e12952}.st13{fill:#ffccab}.st14{fill:#bc1b45}.st15{fill:#008ede}.st19{fill:#beedff}.st20{fill:#fff}</style><circle cx="246.8" cy="151.7" r="1.7" class="st0"/><g id="a"><ellipse cx="256.5" cy="144.7" class="st0" rx="1.6" ry="1.7"/><path d="M153.5 49.7c0-.1.1-.3.1-.4s0-.3.1-.4c2.6.7 5.1 1.6 7.7 2.4.4.1.7.3 1 .5.2.1.2.3.1.5-.4 1.1-1.1 2.5 0 3.5.9.9.9 1.2.3 2.3-.5.9-1.3 1.9-1 3 .2.8.9 1.2 1.7 1.3.6.1.7.4.6 1-.2.5.1 1.5-.3 1.9-2.3 2.4-5.8 1.8-7.2-.9 2.7-1.9.5-2.5-.5-2.9-2.8-1.1-3.8-5.9-3.4-9 .2-1.2.6-2.1.8-2.8z" class="st1"/><path d="M304.2 139.4c2.7 2.3 4.2 5.9.5 8.6 1.9.1 17.6.2 9.6 1.3-4.2-.3-128.5 1.3-94.4-1.3-3.2-1.8-2.7-6.6.4-8.3 0 0 0-.2-.1-.4-1.9.1-4.5-.2-3.9-2.7-.3-2 1.3-2 2.8-2 .2-20-.1-40 .1-60.1-1.2-15.9 9.7-32.1 26.7-31.8 3.6.4 7.1.7 10.7-.2-.4-3.4 3.1-2.5 5.4-2.6-2.2-2-.9-5.6 2-5.5 3.2-.1 3.5 4.2.9 5.5 2.4.2 6.3-1.1 6.1 2.6 32-3.4 37.7 19.3 35.8 46-.1 15.3.2 30.6-.1 46 2.4 0 2.9 1.6 2.6 3.7-.8 1.7-3.5.9-5.1 1.2zm-12.1-4.6c0-13.2-.2-26.4-.2-39.6 0-18.4 3.9-46.1-20.8-49.4-.4 1.7-2 2.6-3.6 3-.6 1.3-.8 1.5-2.2 1.9v4.5c3.5.3 7.5-.6 10.7.6.9 2.3-2.6 1.8-3.9 1.8-6.5-.6-14 1.3-20-.9-.8-2.6 8.9-1.4 10.8-1.6v-4.3c-1.3 0-2.3-.4-2.5-1.8-2.2 0-3.6-1.1-3.7-3.4-19.1.4-24.5 20-22.7 36 .2 17.7-.5 35.5 0 53.2 19.5-.1 38.8-.9 58.1 0zm-12.8-89.5c18.8 8.5 15.2 31.5 15.5 48.4.1 13.6-.1 27.3-.1 41 3.2 0 6.4-.1 9.5-.1-.2-13.2-.2-26.4-.2-39.6.3-20.4 3.7-49.3-24.7-49.7zm-34 .4c-29.4 1-22.6 35.4-23.3 55.7.1 10.9-.2 21.9-.1 32.8 2.4 1 6.5.1 9.4.4.1-14.2 0-28.3 0-42.5.3-16.2-2.9-37.2 14-46.4zm-7.9 102.1v.1c16.8-.2 33.6.7 50.3.3-3.5-1.5-3.5-6.9 0-8.5v-.4c-16.9-.2-33.8-.1-50.7 0 2.4 2.7 3.9 5.7.4 8.5zm62.7-8.4c-2.8 0-5.5-.1-8.2.1 3.2 2.2 3.9 6.7 0 8.8v.1c2.6-.1 5.3-.1 7.9-.2-3.1-1.9-3-6.8.3-8.3v-.5zm-75.4.4c3.1 1.7 3.2 6 .4 8.1h6.9v-.1c-2.9-1.8-2.5-6.7.6-8.1 0-.1 0-.2-.1-.3-2.6.1-5.2-.2-7.9-.1.1.2.1.3.1.5zm41.4-102.5c0-2.1-2.6-2.7-3.9-1.3-2.3 3.2 3.7 5.4 3.9 1.3zm34.4 104.9c-1.6 1.2-.5 4.3 1.8 4.2 2.3 0 3.5-2.9 1.7-4.4-.6 3.8-2.6 3.8-3.5.2zm-67.5 0c-3.7 5.5 7.3 5.5 3.6.1-.9 3.5-2.7 3.4-3.6-.1z"/><path d="M228.2 136.7c-.3-1.5 1.2-1.6 2.3-1.5 17.5-.2 34.9.5 52.4.2 8.1-.5 16.3 0 24.4-.2 1.8-.3 1.5 1.7 1.4 2.8-21.4 1.4-44.3.3-66.2.4-2.8-.5-14.7 2.2-14.3-1.7zm78-2.2h-1.5c.3-16.4.1-32.9.3-49.3 1.6-24.8-5.2-44.2-33.9-40.5v-1.4c27.8-2.7 37 15.3 35.2 40.4-.2 17-.1 33.9-.1 50.8zm-72.9.1H232c-.3-14.6 0-29.2-.1-43.9-1.2-21.5.4-47.5 28-47.7 1.5-.5 2 1.5.3 1.6-21.1-1.8-28.6 17.8-27.2 35.8.2 18.1.2 36.2.3 54.2z" class="st2"/><path d="M243 45.1c-19.1 1.3-23.1 22.3-22 38 0 17.2.2 34.4.1 51.6H220c-.5-19.4.1-38.9-.2-58.3.1-9.9 2-20.9 10.4-27.2 2.9-2.1 9.9-6.6 12.8-4.1zm44.1 7.2c7.7 8.7 7.1 21.2 7.1 32.1 0 16.8-.1 33.5 0 50.3-.4 0-.9.1-1.3.1-.4-16.3.1-32.9 0-49.3-.4-8.1.9-16.8-2.2-24.4-.5-3.3-3.7-5.6-3.8-8.7.1-.1.1-.1.2-.1zm-23.9-4c-1-.2-2.8.4-3.1-1 0-.6-.4-1.9.5-1.9 1.1-.1 1.5-1.8.8-2.5-.5-.7-2 .3-2.1-.8-.1-.8.4-1.4 1.2-1.3 3 .7 7-.8 9.5.7 2 5.7-1.6 7.3-6.8 6.8zm-10.6 7.9c7.3-.6 15.9-1.1 22.9.3-6.3.8-12.8-.3-19.1.1-1.3-.1-2.7.1-3.8-.4zm13.5-18.9c-.2 4.1-6.1 1.9-3.9-1.3 1.3-1.4 3.9-.8 3.9 1.3z" class="st2"/><path d="M302 148.1c-2.4.2-4.4-2.1-4-4.5 0-.6.5-1.4 1.1-.8.4.5.2 1.1.3 1.7.3 2.2 3.3 3 4.9 1.6 2.5-.4-1 2.7-2.3 2zm-67.4-.2c-3 1.1-5.8-5.5-3-5.1.4.3.2.9.3 1.3-.1 2.4 3.4 3.6 5 2 2.3-.1-1 2.5-2.3 1.8z" class="st0"/><path d="M233 142.2c.9 3.6 2.7 3.7 3.6.1 3.7 5.4-7.3 5.4-3.6-.1z" class="st3"/><path d="M300.8 140c.9.4 1.8.7 2.7 1.1-.6 5.7-2.5 2.7-2.8-1 .1 0 .1-.1.1-.1zm-67.3.1c.9.3 1.7.7 2.6 1-.8 5.8-2.4 2.8-2.6-1zM264.6 55h-.9c-.2-1.1 0-2.2 0-3.3.3.2.6.4.9.7V55zm-3.2-5.8c.8 0 1.5.3 2.1.5-.7.3-1.6.1-2.1-.5z" class="st2"/><path d="M297.6 128.6c5.1-4.2 5.6 7 0 2.8 0 1.9-1.7 4-3.6 3.6-10.9-.1-21.7.2-32.6.1-5.1-1.1-15.5 2.1-18.7-1.6 0-2.1-2.2-.6-2.6-2.2-.2-1.3.7-1.8 1.8-2 .6-1.9-.6-4.5.4-6.3-3.7-14.1 12.9-10.5 21.5-10.9 8.7 0 17.4-.1 26.1-.1 3-.3 6.2.5 7.1 3.8 1.3-1.9 4.1-1 4.7 1 .5 2.4-2.9 3.6-4.5 2 0 3.3.3 6.4.4 9.8zm-31.8-3.1c-.4-1.4.2-4.6-1.2-5.1-.4 1.2-1.9.9-2.6.1-.9 1.1-2.4.9-3.1-.4-.6 1.3-2.6 1.2-3-.1-.1 0-.3.1-.4.1.7 2.3-1.4 7.5 2.3 6.7.1-3.7 5.7-1.3 8-1.3zm0 .4c-2 .2-7.4-2.2-7.4.9 1.9-.5 6.8 1.2 7.4-.9zm-22.4 6.4c0 1.2 1.9.2 2.7.4 1.1-.6.2-2.9-.4-3.7-.6-.6-2.5-.7-2.8.2 2-.4 3.5.8 3.2 2.9-.9.2-1.8.4-2.7.2zm-.3-.7c-.1-.7 0-1.4.3-2-2.9-.1-4 2.4-.3 2zm2.6.2c-.7-4.8-4.5.7 0 0zm10.5-11.9c.4 1.2 2.2.9 2.4 0h-2.4zm3.2 0c.5 1 1.7 1.1 2.3.2-.8 0-1.5-.1-2.3-.2zm3 .1c.4.6 1.4 1 1.7.2-.6 0-1.1-.1-1.7-.2z"/><path d="M247.8 123.7c1.6-1.2 4.4-.2 6.4-.5-.8 5.8 3.8 4.1 7.7 4.3 4.2.3 4.4-.2 4.3-4.3h30.4c.4 2.8.2 6.1.3 9-.1 4.9-30.4 1.1-36 2.2-13-.5-12.8 3.8-13.1-10.7zm6.4-1.1c-2-.3-4.7.5-6.2-.2.2-2.6-.5-5.7 1-8 1.1-1.3 2.8-1.4 4.4-1.6 13.1-.1 26.2.3 39.3 0 4.7.2 4.1 5.9 4 9.3 0 .7-.7.4-1.1.5-4.9-.1-9.8 0-14.7 0-4.9-.1-9.8.1-14.6 0-.2-4-4.6-3.1-7.7-3.4-2.7-.1-4.9.1-4.4 3.4z" class="st4"/><path d="M265.8 125.5c-2.3 0-7.9-2.4-7.9 1.3-3.8.8-1.6-4.4-2.3-6.7.1 0 .2-.1.4-.1.5 1.3 2.5 1.4 3 .1.6 1.2 2.2 1.5 3.1.4.7.8 2.2 1.1 2.6-.1 1.3.6.7 3.8 1.1 5.1z" class="st4"/><path d="M265.8 125.9c-.6 2.1-5.4.4-7.4.9-.1-3.1 5.3-.7 7.4-.9z" class="st4"/><path d="M299.1 118.8c-2.3 0-2-3.8.4-3.3 2.3.4 2 3.3-.4 3.3zm.2-1.2c1.1.1.8-1.6-.2-1.2-.5.4-.6 1.3.2 1.2zm.5 14.1c-3.9-.1-1.2-5.1.9-2.8.7.9.8 3-.9 2.8zm-.2-2.2c-.9 0-1 1.2 0 1.2.9 0 .8-1.2 0-1.2z" class="st0"/><path d="M243.4 132.3c.9.2 1.8 0 2.6-.3.3-2-1.2-3.3-3.2-2.9.3-.8 2.2-.7 2.8-.2.6.9 1.5 3.1.4 3.7-.7-.1-2.6.9-2.6-.3z" class="st3"/><path d="M243.1 131.6c-3.7.4-2.6-2.1.3-2-.3.7-.4 1.3-.3 2z" class="st3"/><path d="M256.2 119.9h2.4c-.2.9-1.9 1.2-2.4 0zm3.2 0c.8.1 1.5.1 2.3.2-.7.9-1.9.8-2.3-.2zm3 .1c.6.1 1.1.2 1.7.2-.3.9-1.4.4-1.7-.2z" class="st4"/><path d="M299.3 117.6c-.8 0-.7-.8-.2-1.2 1-.3 1.3 1.3.2 1.2zm-.2-.4c.1-.1.2-.1.4-.1-.1-.2-.4-.2-.4.1zm.5 12.3c.8 0 .9 1.2 0 1.2-1 0-.9-1.2 0-1.2zm-.1.8c.1 0 .2-.1.2-.1-.2-.5-.7 0-.2.1z"/><path d="M299.1 117.2c0-.3.2-.4.4-.1-.1 0-.2.1-.4.1zm.4 13.1c-.6-.1 0-.6.2-.1 0 0-.1.1-.2.1z" class="st3"/><path d="M272.5 113c24.7 0 24.7-1 0-.9-24.7-.1-24.7.9 0 .9z"/><path d="M272.9 112c-.2-6.3-.1-12.6.1-18.9 2.2 1.6 2.1-1.1.1-1.3 0-6.6 5.9-11.6 12.2-8.1 5.2 3.3 2.3 11.4 3.7 16.7 2 16.2-4.3 10.6-16.1 11.6z" class="st5"/><path d="M285.9 82.8c-5.5-4-15-.8-13.9 6.8.3 7.4-.1 15 .3 22.4-4.6 1.1-1.9-6.1-2-8.6.3-4.5.1-9.1.8-13.6.7-3.6-.5-11.1 4-11.9 3.5-.6 10.4.1 10.8 4.9z" class="st5"/><path d="M272.9 77.9c-3.3 6.5-2.4 14.6-2.9 21.8-1-.5-3.4.6-3.2-1.1.8-6.5-1.7-18.2 6.1-20.7z" class="st6"/><path d="M269.8 78.4c-1.7 1.3-1.7 3.4-2.7 5-2.2.4-3.7 5.4-.5 3.1-.5 4.4-.8 8.6-.5 13-.9-.1-1.7-.2-2.6-.3.8-6.5-3.5-20.3 6.3-20.8z" class="st5"/><path d="M285.9 83.3c-5.6-3.3-12.8-.4-13.3 6.3-1.2-7.2 8.3-10.4 13.3-6.3z" class="st6"/><path d="M256 110.7c1.6 1.8 5.4-.8 6.3 1.3-2.1-.2-4.7.6-6.3-1.3z" class="st3"/><path d="M265.6 86.4c-.1-.9.7-1.9 1.7-2.2-.5.8-.9 1.8-1.7 2.2z" class="st6"/><path d="M276.5 89.8c0-.1.1-.2.1-.2v-.1c3.3 0 7.3-.6 10.2.1.6.2.5 1 .7 1.6.3.8-1.1 1.5-1.2.5v-1.8c-3.3-.2-6.6.2-9.8-.1zm10.4 1v.8c.1-.3.1-.3 0-.8zm-6.5-6.5h.3c.9.5 3.2-.6 3.7.6 0 .7.4 1.6-.5 1.8-2.4.7-4 .6-3.5-2.4zm.4.6c.1 1.1.1 1.9 1.4 1.6 1.3-.1 2.2 0 1.7-1.6h-3.1z"/><path d="M286.9 90.8c.2.5.2.5 0 .8v-.8z" class="st3"/><path d="M280.8 84.9h3.1c.5 1.6-.4 1.5-1.7 1.6-1.2.4-1.2-.5-1.4-1.6z" class="st6"/><path d="M274.5 112.6c-4.1-1-20.8 2.9-19.1-3.7 2.2-8.8 4.2-17.7 7.9-26 .5-4.7 5.1-5.3 8.9-5.5 4.3-.2 10.5-.6 13.4 3.1 4.4 7.8 3.8 17.2 4 25.9 1.4 9.6-9.2 5.4-15.1 6.2zm-1.6-.6c11.8-1 18.2 4.6 16-11.6-1.4-5.2 1.5-13.4-3.7-16.7-6.3-3.5-12.2 1.4-12.2 8.1 2 .1 2.1 2.9-.1 1.3-.1 6.3-.3 12.6 0 18.9zm13-29.3c-.9-3.7-4.6-4.1-7.8-4.6-8.7-2.2-6 10.3-7.3 15.5-.4 3.9 0 7.9-.7 11.8.1 2.2-1.6 7.3 2.1 6.6-.3-7.5 0-15.1-.3-22.5-1-7.7 8.5-10.8 14-6.8zm-13-4.8c-7.8 2.5-5.3 14.2-6.1 20.7-.2 1.6 2.1.6 3.2 1.1.5-7.2-.4-15.3 2.9-21.8zm-3.1.5c-9.8.6-5.5 14.4-6.2 20.9.8.1 1.7.2 2.6.3-.2-4.4.1-8.7.5-13-3.2 2.3-1.8-2.7.5-3.1.9-1.7.9-3.9 2.6-5.1zm-7 20.4s-.1 0 0 0c-.8 3.9-1.6 7.8-2.4 11.6.6.1 1.2.2 1.8.2.2-3.9.4-7.9.6-11.8zm23.1-15.5c-5-4.1-14.5-.9-13.3 6.3.6-6.7 7.8-9.6 13.3-6.3zM256 110.7c1.6 1.9 4.1 1.1 6.3 1.3-.9-2.1-4.7.4-6.3-1.3zm9.6-24.3c.9-.5 1.2-1.4 1.7-2.2-1 .3-1.8 1.4-1.7 2.2zm191.3-13.2c0-20 2.2-43.2-12.5-59-17.3-19.1-51.3-18.4-70.6-2.6-18.2 18.7-13.5 47.2-13.9 71.1.5 20.7-.6 41.5-.4 62.1.3 1.2 0 2.6.8 3.6.1.4.1.4.5.4 2.1-.1 4.3.2 6.3-.3.6-22.3 0-44.7.4-67.1.6-11.9-.9-24.8.4-36.9 16.4-30 65.4-29.6 80.9 1.4 1 24.8.2 49.7.5 74.5-.4 9-.5 18.1 0 27.1.8 1.9 4.2.5 6 .9.3 0 .7 0 1-.4.2-.1.6 0 .6-.3.2-24.7-.1-49.6 0-74.5zm-.9-10.8c-.2 28.4-.1 57.2-.1 85.4h-5.7c.2-26.5-.2-53 0-79.6.6-6.6 2.3-1.9-.3-19.9.6-55.1-83.7-58.5-83.3-.8-1.2 25.4-.5 10-.3 15.3-.5 28.4.2 57 .3 85.4-1.7-.3-4.8 1-5.7-.6-.4-3-.7-5.9-.4-9 .5-13.4.5-26.8.6-40.2.5-34.1-9.6-90.4 37.4-95.8C436.9-5.1 460 26.4 456 62.4z"/><path d="M366.6 148.2c-1.7-.2-4.7.8-5.7-.6-.4-3-.7-5.9-.4-9 .5-13.4.5-26.8.6-40.2.5-34-9.6-90.4 37.4-95.8C436.9-5.1 460 26.4 456 62.4c-.2 28.4-.1 57.2-.1 85.4h-5.7c.2-26.5-.2-53 0-79.6 2.6-30.4-7.8-63.4-44.2-61.1-34 2.2-40.9 25.8-39.7 55.7-.5 28.4.2 57 .3 85.4z" class="st4"/><path d="M327.6 132.2c12.9.3 25.7.6 38.7.1.1 24.5-36.3 20.9-38.7-.1z" class="st7"/><path d="M362.1 59.1c.1.8.3 1.6.4 2.4h.1c.2-.9-.7-2.4.2-3 1.9-.7 4.8-3.3 6.6-1.5.2 4.9.2 12.7-4.1 15.9-2 .8-3.1 3-5.2 3.5-1 1.2-2.3 1.8-3.9 1.6.4-1.7 2.2-1.2 3.5-1.7-.9-.4-1.8-.1-2.7 0 .4-1 2.3-.4 3.2-.7-.9-.3-1.9-.1-2.9-.1.5-1 1.1-2 1.7-3.1.7.1 1.5.2 2.2.3v-.1c-.7-.3-1.4-.4-2.2-.5 1-1.9 2-3.7 3-5.6l.1.1c1.7-.2 3.3-.6 4.9-1-.4-.4-3.9.2-4.7.6.7-1.7 2.7-1.3 4.2-2-1.1-.1-2.1.2-3.1.4 1.2-2.1 3.5-3.8 4.3-6-5.3 5.7-10.2 12.5-13.7 19.3-6.7-1.9-3-10.4.5-13.9.9 1.8 1.4 4 2.6 5.7h.1c-.6-2.2-2-4-1.6-6.3 1 1.2 1.3 3 2.2 4.3-2.5-5.4.2-6.1 4.3-8.6z" class="st8"/><path d="M327.6 131.9c-.3-1.5-.1-5.4-2.4-4.4-.4-2.3 11-.4 13.2-.9 9.2.6 19.5-1 28.1.5 0 1.6.5 3.9-.4 5.1-3.4-.3-7 .4-10.4-.1-9.3-.8-18.8.1-28.1-.2z" class="st4"/><path d="M350.2 43.3c.8 1.1 1.5 2.1 2.2 3.2 0 0 .1 0 .1-.1-.4-1.2-1.2-2.3-1.9-3.3 2.8-1.6 4.1-4.7 5.4-7.5-1.3 7-3.4 13.8-5.4 20.7-2.8-1.2-2.3-4-1.8-6.4.5-1.9-.8-4 .1-5.7.9 1.4 1.7 2.9 2.7 4.2-.6-1.6-1.5-3-2.3-4.5.3-.2.5-.4.9-.6z" class="st8"/><path d="M331 44.6c16 13.9 15.2 54.1 15.1 74.4-2.7-24.6 2.1-54.2-15.1-74.4zm16.2 81c-1.7-18.8 2.3-39.8 12.6-55.8-9.8 16.9-12.4 36.6-12.6 55.8z" class="st2"/><path d="M338.1 83.2c-1.1-1.3-.4-2.1.5-3.3.8.5 1.6 1.1 2.5 1.6-.3.4-.7.6-.7 1.2.5.2 1.2-.4 1.6-.1 1 2 1 4.6.1 6.7-2.1-.1-2.4-2-3-3.7 1.1-.1 2.2-.2 3.4-.3v-.1c-1.2-.1-2.3 0-3.4.2-.4-.7-.7-1.5-1-2.2.4-.2.7-.5 1-.9-.5.2-.7.5-1 .9zm-9.1-9.9c2.1 2 3.9 4.3 5.9 6.5-.6-.2-1.1-.3-1.7-.4v.1c.9.7 2.3.6 2.9 1.7h-1v.1c1.9.3 2.3 1.8 3 3.3-3.9-2.5-6.8-7.1-9.1-11.3z" class="st8"/><path d="M342.3 97.3c1.1 6.8 2.7 13.6 2.2 20.5-1-6.6-1.3-13.7-2.2-20.5-.1 0-.1 0 0 0z" class="st2"/><path d="M337.4 79.1c-.3.5-.6 1.1-1 1.6-.3-.3-.7-.6-.3-1 .1-.1 0-.3 0-.4-.2.1-.3.3-.4.6-1.7-1.9-3.4-3.8-5.2-5.7v-.1c1.4 1.1 2.8 2.3 4.4 3-.1.4-.3.6-.1.9.3-.1.3-.4.5-.6.7.6 1.4 1.1 2.1 1.7zm4.7 14.4c-.6-1.4-1.1-2.9-1.6-4.3 0 0 .1 0 .1-.1.5.1 1.1.3 1.6.4-.1 1.4.2 2.7-.1 4z" class="st8"/><path d="M348 77.1c.4-6.9.8-13.8 2.4-20.5h.1c-1.5 6.8-1.9 13.7-2.5 20.5zm.4 38.2c.8-2.5 1.3-5.7 3.6-7.2-1.4 2.3-2.6 4.7-3.5 7.3 0-.1 0-.1-.1-.1z" class="st2"/><path d="M339.6 88.6c-3.2-3.9-1.3-5 0 0zm-1.8-9.2c.2.1.3.2.5.4-.4.6-.7 1.2-1.1 1.8-.9-.8.2-1.5.6-2.2z" class="st8"/><path d="M355.6 75.8c.6-1.5 1.3-2.9 2.3-4.2-.7 1.5-1.5 2.8-2.3 4.2zm-7.5 49.7c-.4-.1-.2-.7-.2-1.1.1.4.2.7.2 1.1z" class="st3"/><path d="M338.1 83.2c.3-.4.5-.7 1-.9-.3.4-.6.7-1 .9z"/><path d="M358.3 78.2c.6-.2 1.3-.5 1.7-1.1 1.7-.7 3.3-2.2 4.8-3.4 4.2-1.7 4.1-6.6 4.9-10.4-.1-2.3 1.9-7.7-1.9-7.4-4.2.7-9.6 3.4-11.9 7-.7-.7-.7.3-.7.9-.6-.5-.7-.4-1.2.1-4.2 3.5-7.2 13.5.5 14.4-3.5 7.9-5.4 16.2-7 24.6.9-15.5.5-31.3 3.5-46.5 3.7-15 10.3-32.1 8.1-47.2-.3.8-.2 1.8-.4 2.7-.1-.4-.3-2.3-1-1.5-1.1 3.3-2.7 6.4-4.4 9.5-4.4 8.2-11.9 30.7-3.6 37.6-2.5 10.3-2.6 21.3-4 31.8-.2-10.1-2.5-19.7-5.1-29.4 7.2-3.4 3.6-9.2-.3-13.6-2.9-3.9-2.6-2.9-5.9-.3 3-3.6 5.1-4-.4-6.3-4-2.2-8.2-4.1-12.3-6.3-.5-.3-.5-.1-.5.4-4.1-3.8 3.8 12 5.7 12.6 3.3 4.6 8.5 7.5 11.3 12.5 5.7 14.5 5.9 30.5 6.2 45.8-.5-4.5-2.6-8.7-1.9-13.1-.3-3.1 1.7-6.8-.4-9.6-.4.1-.8.3-1.3.4.3-.7.9-1.1 0-1.6-2.8-1.6-5.1-3.9-7.9-5.5-13.1-11.1.3 8.5 4.6 9.8-.2.1-.4.3-.5.4 6.3 9.9 6.3 22.7 5.8 34.1-.4 1.8.1 4.8-1 6.1-3.8 0-7.6 0-11.5.1-7.8-.5-6 1.6-6 7.9.2 8.1 5.3 14.8 13.1 16.3-24.1.1-22.5 1.1 4.7 1.1 24.4 0 28.2-.8 11.3-1 3.9-.9 7.4-2.5 10-5.5 3.4-5.2 4-11.6 3.6-17.6-2.8-2.6-13.7-.6-18.1-1.3-2.3-6.5 1-12.2 3.7-17.8-1.3-1.9-3.9 3.9-4.2 5.2.6-6.2 3.5-35.1 9.9-34.9zm-9.5-28.3c.5-1.9-.8-4 .1-5.7.9 1.4 1.7 2.9 2.7 4.2-.6-1.6-1.5-3-2.3-4.5l.9-.6c.8 1.1 1.5 2.1 2.2 3.2 0 0 .1 0 .1-.1-.4-1.2-1.2-2.3-1.9-3.3 2.8-1.6 4.1-4.7 5.4-7.5-1.3 7-3.4 13.8-5.4 20.7-2.9-1.2-2.3-4-1.8-6.4zm1.6 6.7c-1.3 6.8-1.8 13.7-2.3 20.5h-.1c.3-6.8.8-13.8 2.4-20.5zm3.7 21.2c-6.7-1.9-3-10.5.5-13.9.9 1.8 1.4 4 2.6 5.7h.1c-.5-2.2-2-4-1.6-6.3 1 1.2 1.3 3 2.2 4.3-2.6-5 .2-6 4.2-8.4.1.8.3 1.6.4 2.4h.1c.2-.9-.7-2.4.2-3 1.9-.7 4.8-3.3 6.6-1.5.2 4.9.2 12.7-4.1 15.9-2 .8-3.1 3-5.2 3.5-1 1.2-2.3 1.8-3.9 1.6.4-1.7 2.2-1.2 3.5-1.7-.9-.4-1.8-.1-2.7 0 .4-1 2.3-.4 3.2-.7-.9-.3-1.9-.1-2.9-.1.6-1 1.1-2 1.7-3.1.7.1 1.5.2 2.2.3v-.1c-.7-.3-1.4-.4-2.2-.5 1-1.9 2-3.7 3-5.6l.1.1c1.7-.2 3.3-.6 5-1-.4-.4-3.9.2-4.7.6.7-1.7 2.7-1.3 4.2-2-1.1-.1-2.1.2-3.1.4 1.2-2.1 3.5-3.8 4.3-6-5.3 5.5-10.3 12.3-13.7 19.1zM331 44.7c16 13.9 15.2 54 15.1 74.4-2.7-24.7 2.1-54.3-15.1-74.4zm7.3 35c-.4.6-.7 1.2-1.1 1.8-.9-.7.2-1.4.6-2.2.2.2.3.3.5.4zm-7.7-5.6c1.4 1.1 2.8 2.3 4.4 3-.1.4-.3.6-.1.9.3-.1.3-.4.5-.6.7.5 1.4 1.1 2.1 1.6-.3.5-.6 1.1-1 1.6-.3-.3-.7-.6-.3-1 .1-.1 0-.3 0-.4-.2.1-.3.3-.4.6-1.8-1.8-3.5-3.7-5.2-5.7zm-1.6-.7c2.2 1.9 4 4.3 6 6.5-.6-.2-1.1-.3-1.7-.4v.1c.9.7 2.3.6 2.9 1.7h-1v.1c1.9.3 2.3 1.8 3 3.3-4-2.6-6.9-7.2-9.2-11.3zm10.6 15.2c-2-2.7-1.5-4.6 0 0zm-.5-3c1.1-.1 2.2-.2 3.4-.3v-.1c-1.2-.1-2.3 0-3.4.2-.3-.7-.6-1.5-1-2.2-1.1-1.3-.4-2.1.5-3.3.8.5 1.6 1.1 2.5 1.6-.3.4-.7.6-.7 1.2.5.2 1.2-.4 1.6-.1 1 2 1 4.6.1 6.7-2.1-.1-2.4-2-3-3.7zm3 7.9c-.6-1.4-1.1-2.9-1.6-4.3l.1-.1c.5.1 1.1.3 1.6.4-.1 1.4.2 2.7-.1 4zm-14.5 38.7c12.9.3 25.7.6 38.7.1.1 24.5-36.2 20.9-38.7-.1zm38.8-5.2c0 1.6.5 3.9-.4 5.1-3.4-.3-7 .4-10.4-.1-9.2-.7-18.7.2-28-.1-.3-1.5-.1-5.4-2.4-4.4-.3-2.3 10.9-.4 13.2-.9 9.1.5 19.4-1.1 28 .4zm-14.3-19c-1.4 2.3-2.6 4.7-3.5 7.3h-.1c.7-2.5 1.3-5.7 3.6-7.3zm-4.9 17.6c-1.7-18.8 2.3-39.8 12.6-55.8-9.8 16.9-12.4 36.6-12.6 55.8z"/><path fill="#22262e" d="M432.5 49.8c-.1-.6-12.2.9-12.4 2-4.1.2-.6-2.6-2.3-2.7 1.3-4.8 12.3-4.8 15.5-1.9.2.3.1 1.9.2 2.4 0-.1-.7-.1-1 .2z"/><path d="M404.9 143.1c0 .8-.8 1.5-1.8 1.5s-1.8-.7-1.8-1.5.8-1.1 1.8-1.3c1.6-.2 1.8.5 1.8 1.3z" class="st10"/><ellipse cx="398.2" cy="143.6" class="st10" rx="1.6" ry="1.4"/><path d="M389.8 143.8c-.1-.6-.1-1.7.7-1.7.7.2 2-.4 2.3.5.7 2-2.6 3.3-3 1.2z" class="st10"/><ellipse cx="386.1" cy="143.5" class="st10" rx="1.8" ry="1.6"/><use xlink:href="#reuse-0"/><path d="M392.4 123.7c-1.3-.8-1.2-6.6-1-8.9.1-2 1.7-2.4 3.3-2.2 0 .4-.2 2.5-.4 3.7l.1 3.6c.1 1.2.2 2.7.3 4-.6-.1-1.6-.2-2.3-.2z" class="st11"/><use xlink:href="#reuse-0"/><path d="M399.3 98.8c0 .3-.1.5-.4.5-3.5.5-.7-2.8 1.3-2.3v.1c-.7.3-.8 1-.9 1.7zm2.5.4c-.1 0-.2-.2-.3-.4h1.4c0 .1.1.3.1.4-.4.1-.8.1-1.2 0z" class="st11"/><path d="M403.1 142.4c.6 0 .6 1.2-.1 1.1-.6-.1-.4-1.2.1-1.1zm-.2.6c0 .1.1.1.2.2l.3-.3c-.3-.2-.5-.2-.5.1zm-11.7-.1c.8-.1.8.9.2 1-.7.1-.9-.9-.2-1zm.1.7c.2-.1.3-.3 0-.4-.3 0-.3.5 0 .4z"/><path d="M421.6 137.1s-3-.1-4.1-.9c-.9-4.4-1.3-7-1.4-12.1-.1-5-2.1-9.6-2.6-14.5-.4-5.6-.8-11.2-1.1-16.8 5.4.8 11.5.3 16.6-1.6.1 12.4-.5 25-.2 37.4 0 2 1 5.5-.2 7-.4.7-2.1 1.4-5.8 1.4-.6 0-.9.1-1.2.1zM419.1 92c-6.8-2-6.8.2-7.6-7.1-.3-7.3.1-15.1-.6-22.6.2-.6 8.4-2.5 8.8-2.2 1.2 1.1 2.7 2.6 3.9 3.9.2.2-.6 2-.6 2.5-.4 5.3-1.3 9.2-1.9 14.7-.2 3.7.2 7.4-1.7 10.7l-.3.1z" class="st12"/><path d="M421.3 92.1c-.7-9.1.6-18.7 3-27.4 7.7-3.6 6.9-1.7 13 3.5-3 7.4-6 15-8.3 22.6 0 0-4.7 1.7-7.7 1.3zm1.6-11.5c-.3 1.5 1.5.6 1.5-.1 0 .1-1.1-.9-1.5.1zm1.7-11.7c-.4.6 1.6 1.9 1.4.4 0 0-.8-1.3-1.4-.4zm-.1 7.2c1.2-.1-.7-2-.8-.6.1.5.2.6.8.6zm-.9 10.6c0-.8-1.4-1-1.1.2.4 1.1 1.1-.2 1.1-.2zm-31.4-22.6c2-.1 3.7-1 5.6-1.3 1.5 1.8 1.1 5.2 2.9 3.1 2.7-1.6 6.6-2.3 9.6-3.6.7 3.5-.7 7.1-1.2 10.5-2.2.8-12.2 3.2-13.2 2-2.6-2.7-2.5-7.2-3.7-10.7zm51.2 22.4c-1.9.1-4.6 1.1-5.9-.8-.8-1.5-4-7.5-2-8.3.9-.2 1.1-7.9 2.3-8.8 1 .1 15.3 17.4 5.6 17.9z" class="st12"/><path d="M431.8 48.3c.3 3.3 1.2 6.6-1.6 9.3-1.6 2.1-5.8 2.9-7.6.6-2.5-2.8-2-6.3-2.8-9.7 2 .3 4-.5 5.8-.9 2.2.6 4.2-.5 6.2.7zm-49.7 5.5.8-.6h5.7s-2.1-1.5-1.6-1.9c3.9.7 8.2 2.1 9.1 6.2-1.4-.3-4.8 1.7-5.4.3-.4-1.3-6.9-1.5-7.4-2.2.1-1.3-1-1-1.2-1.8z" class="st13"/><path d="M418.6 45.4c-2.1-5.3 13.6-6.6 12.7-1.4-7.5-1.8-5.8-1.5-12.7 1.4z" class="st12"/><path d="M397.6 62.2c-1.7.5-3.6 1.2-5.3 1.4.1-1.2-1.5-3.9-.7-4.6 4.8-1.3 4.6-1.9 6 3v.2zm32.9-3.9c0 1.2-.1 2.4-.1 3.6-.6.4-5.6 2.2-6.2 2.2.2-4.9 3.3-3.2 6.3-5.8zm-7.8 80.7c0-.6-.1-1.2-.1-1.8 2.1-.1 4.3-.4 6.2-1 .7 3.4-3.9 2.8-6.1 2.8zm7.5-93.7c-3.2-.9-6.4-.4-9.6.6 2.6-3.3 6.5-3.6 9.6-.6z" class="st14"/><path d="M420 59.7c1.6.2 3.2.6 4.8.9-.3 1.1-.6 2.2-.8 3.3-1.1-.1-3.1-3.2-4-4.2-.1.1 0 .1 0 0zm1.8 79.3c-1.8-.4-4.5.3-4.3-2.3 1.4.2 2.9.4 4.3.7v1.6z" class="st14"/><path d="M432.2 54.8c-.1-1 .2-1.4.3-2.4 0-5.7 3.7-.4-.3 2.4zM421 56.2c-4.2-1.9-2.2-6.4-.9-2.5-.2-.1.7 1.4.9 2.5.1-.1 0-.1 0 0z" class="st13"/><path d="M420.5 45.2c-.5.7-1 1.2-1.8 1.5-.5-1.2 1-1.1 1.8-1.5zm9.5-.9c.9.1 1.5.3 1.5 1.4-.7-.1-1-1-1.5-1.4z" class="st14"/><path d="M424.6 80.6c0 1.5-2.4 1.5-2-.1.3-.9 1.7-.7 2 .1zm-1.2.6c1.7-.5-1-1.2 0 0zm2.8-11.9c.2 1.5-2.6.8-1.8-.4.4-1 1.8-.5 1.8.4zm-1-.6c-1.4.9 1.3 1.3.2.3-.2 0-.3-.1-.2-.3zm-.7 7.6c-.6 0-1.1-.3-1.2-.8 0-2.2 3.5.5 1.2.8zm-.1-.6c.1 0 .2-.1.2-.1-.1-.3-.4-.5-.8-.4.1.4.4.4.6.5zm-.7 10.9c.2 1.1-1.3 1.5-1.4.4-.3-1.3 1.4-1.8 1.4-.4zm-.5 0c0-.1-.1-.3-.1-.4-1.3.5 0 1.8.1.4zm-.8-32.9c.1-.1.1-.1.2-.1 2.5 1.9 5.6.9 7.4-1.2.5 2.7-5.9 4.2-7.6 1.3z"/><path d="M425.4 49.8c.1 0 .2.1.3.1.3 1-1 4.9.8 2.4.2-.3.5-.3.7 0 .2.7-.5 1.4-1.2 1.6-2.1.2-.9-3-.6-4.1zm-3.2 2.3c-1-1 1.5-2 2.2-1.3.2.1.2.3-.1.4-.8.1-1.6.2-2.1.9zm4.9-1.4h-.2c0-.8 2.5-1.3 2.7-.4-.9 0-1.7.2-2.5.6v-.2z"/><path d="M423.2 86.6c-.1 1.4-1.4.1-.1-.4.1.2.2.3.1.4z" class="st3"/><path d="M450.7 144.7c-4.3-.6-9.1-.3-13.5-.5.3-3.1-7.7-3.2-8.3-5.5 1.4-15.2-.1-31.6.4-47.1v-.1c-.2-1.3 1-2.6 1.3-3.9.2-.6.2-.6.9-.6 4-.1 8 1.1 12 .3 9.6-1-.7-14.6-4.2-17.8-2.6-2.8-5.6-5.4-8.5-7.7.1-1.2.7-2.8 0-3.9.9-2.7 6-5.4 3.1-8.4-.2-.5.1-1.1-.3-1.6.7-.7-.2-1.7-1-1.9-.7-.7-.3-2.1-.6-3-1.8-5.1-18.2-2.4-13.4 4.1-.7.4-1.9 2.2-.6 2.4-.5 1-.4 1.7.1 2.4-1 1.8.9 3.7 2.3 4.6-.4.9-.2 2.3-1 2.9-2.2.5-4.3 1.3-6.6 1.5-4.5.8-9 2.8-13.2 4.6-.8-3.7-2.2-7.1-3.7-10.6-.5-2.5-13.7-6.2-7.5-1.7-2 .1-5.3-1.5-6.7.3-.4 1.1.7 1.4 1.5 1.7-.7 1.4 3 1.3 3.9 1.8 3.2.8 3.5 0 3.8 3.6-1.1.7-.3 2.1.8 2.2 2.5 17.8 4.5 13.1 19.5 10.5-.3 21 2.5 41.6 5.6 62.5.2.9.2 1.9.6 2.8.2.3.2.3 0 .6-1.6 2.7-7.7 2.1-7.5 5.3-1.7-.1-3.5 0-5.2 0 .7-.7 1-1.9.2-2.7 1.2-.8 1.2-2.4 1.3-3.6v-22c-.7-3.7 2.2-15.5-2.9-15.5 0-.3-.1-.6-.1-1 .4-.2.4-.2.3-.6-.3-1.9-2.3-2.6-4-2.3-1.1-.1-3.2 2.1-1.7 2.9v1c-4.4.1-10.4-.8-12.6 4-2 6.5-2 13.5-2.3 20.2.6 4.7-2 14.8 2.4 17.3-1 .7-1.2 2.1-.3 2.9-.5 0-.9 0-1.3.1.1.3.1.3.4.3 2.5 0 5-.1 7.5 0 6.1-.2 12.4.4 18.4-.3 13.3.1 27.1.5 40.7-.5zm-12.8-75.8c3 2.5 14.2 17 5.7 17.5-1.9-.1-4.7 1-6-.8-.8-1.5-3.8-7.2-1.7-8 .9-.2 2 .1 2.7-.3.3-.7-1.1-.3-1.5-.4-1.2-.9.2-6.6.8-8zm-.7-.6c-3 7.4-6 14.9-8.4 22.5-2.4.9-4.9 1.3-7.4 1.3-.8-8.7.8-17.8 2.7-26.3.3-2 3.1-1.7 4.6-2.6 3.2-1.6 5.8 3.6 8.5 5.1zM424.3 64c.3-4.7 3.2-3 6-5.6 0 1.1-.1 2.3-.1 3.4-.5.4-5.3 2.1-5.9 2.2zm7-8.2c-1.2 3.2-6.1 4.9-8.5 2.3-2.5-2.7-2-6.1-2.7-9.4 2 .3 3.9-.5 5.7-.8 2.1.6 4.1-.5 6 .6-.1 2.5.9 5-.5 7.3zm.9-1c-.2-1 2.5-5.1.3-2.4.1-5.6 3.7-.4-.3 2.4zm-.6-9.2c-.7-.1-1.1-.9-1.5-1.3.8.1 1.5.2 1.5 1.3zm-1.4-.3c-3.2-1.2-6.4-.4-9.6.6 2.6-3.1 6.5-3.4 9.6-.6zm1.1-1.2c-7.4-1.9-5.8-1.6-12.7 1.4-2.2-5.4 13.6-6.6 12.7-1.4zm-10.8 1.1c-.5.7-1 1.2-1.8 1.5-.5-1.2 1-1.1 1.8-1.5zm-2.7 3.8c1.6-4.7 12.1-4.5 15.4-1.9.2.3.1.4-.2.5-.2 0-.4.3-.1.3.6.2.3 1 .4 1.4-.3-.1-.5 0-.8.3-.1-.6-.2-1.2-.3-1.7-1.5-.1-3-1.3-4.4-1.2v.1c.4.2.7.4 1.1.6-1.9.3-3.8-.2-5.8-.3.4.4.9.3 1.4.5v.1c-1.8.8-4.1.2-5.8.8.3.1.5.1.8.2-.4 1.1.6 2 .4 3-3.9.1.4-3.2-2.1-2.7zm2.3 4.6c-.2-.1-.4-.3-.6-.1.6.9 1.3 1.5 1.7 2.5l-.1.1c-4.3-2.1-2.2-6.2-1-2.5zm.2 6.3c1.4.2 2.8.5 4.3.8-.2 1-.5 2-.7 3-1.4-.5-2.4-2.7-3.6-3.8zm-29.5-2.2c3.5-.4-6.6-1.8-7.4-2.2 1.9-.9 4.1.2 6.1.2-1-1.5-7.3-.7-7.3-1.9 2 .2 3.9.4 5.9.6v-.1c-1.7-.6-3.5-.8-5.3-.9 3-.2 6 .8 9 .8 0-.1 0-.2.1-.3-1.1-.2-2.1-.4-3.2-.6.4-.9-1.9-.8-1.7-1.8 3.5.9 8 2 8.9 6.1-1.4-.5-4.6 1.5-5.1.1zm.2 3.4c.2.4.5.7.4 1.2-.3-.4-.9-.7-.4-1.2zm.6-2.1c4.8-1.3 4.6-1.8 5.9 3.1-1.7.5-3.5 1.2-5.3 1.4.1-1.1-1.4-3.7-.6-4.5zM409 72.8c-2.2.8-5 .9-7.4 1.5-1.8 0-3.8 1.2-5.5.5-2.6-2.7-2.6-7.2-3.8-10.7 2-.1 3.6-1 5.5-1.3 1.5 1.8 3.1 12.1 3 3.1 2.7-1.6 6.4-2.2 9.4-3.5.7 3.5-.7 6.9-1.2 10.4zm2.2-8.9c.1-.5-.5-1.4 0-1.8 2.6-1 5.4-1.5 8.1-2 .3-.1.5 0 .7.3.8 1.2 2.1 1.9 2.9 3 .1.3.8.4.7.8-1.5 4.1-1 8.6-2.2 12.8-.9 4.9.2 10.2-2.2 14.8-6.8-1.9-6.7.1-7.5-7.1-.2-6.8-.2-13.8-.5-20.8zm-8.3 35.3c-.5-.1-1.1.2-1.2-.4h1.2v.4zm-1.3 1.3h-2.9c0-.3 0-.7.1-1 .7.1.6-.4 1-.7.5.1 1.3-.2 1.6.3 0 .2 0 .4.2.6.1.1 0 .4 0 .8zM400 97c.1 0 .1.1 0 0-.6.5-.7 1.2-.8 1.9-.1.3-.1.3-.4.3-3.2.4-.6-2.6 1.2-2.2zm-15.3 45.5c.5-.5 1-.4 1.6-.3 0 .3-.1.5-.1.8-.2.1-.3.2-.5.3-.4-.3-.7-.5-1-.8zm-.2 1.6c-.1-.4-.1-.8.1-1.2.3.3.7.5 1 .7-.4.1-.7.3-1.1.5zm1.3.8c-.4-.1-1-.1-1.2-.6 1-.2 1.5-1 1.2.6zm.1-1.6c.2.1.3.1.4.2-.3.3-.5.1-.4-.2zm.9 1.6h-.7c0-.3.1-.6.1-.9.4-.4 1.1.1 1.4-.4-1.1-.3-1.3.2-.9-1.3 1.1-.2 1.3 2.4.1 2.6zm7.3-28.5c-.4.1-.7.2-.7.7.2.8-.4 2.5.8 2.6l.3 3.3c-3.4.6-2.6-1.8-2.9-4.2 0-2.5-.9-6.1 2.8-5.5-.1 1-.2 2.1-.3 3.1zm.1 2.8c-.3-.4-.6-2.1-.1-2.2.1.7.1 1.4.1 2.2zm-5.5 23.1h1.2c-.4.8-.4 1.5 0 2.3h-1.3c.2-.8.4-1.5.1-2.3zm3.2 2.3c-1.4.7-2.5-.8-1.8-2.1.4-.6 1.3-.2 1.9-.3 1.1.1.8 2.1-.1 2.4zm.6 0c.5-.7.7-1.5.3-2.4h4.5c-.9.4-1.3 1.5-.8 2.4h-4zm4.2-.6c-.1-.5.2-1.1.7-1.4.8 1.1 0 .8-.5 1.4.3.1.5 0 .8-.1l.3.3c0 .2-.1.5.1.6.2-.9.3-.9 1.2-.6-.4 1-2.3.9-2.6-.2zm.9-1.4c.4-.3 1-.3 1.2 0-.2.2-.3.4-.5.6-.3.2-.5-.4-.7-.6zm.3 1.1c.1-.1.2-.1.2-.2.3.2 0 .5-.2.2zm1.5.3c-.3-.1-.5-.1-.8-.2-.3-.6.4-.7.4-1.2.5.2.6.9.4 1.4zm1.8.4h-.7c.4-.7.6-1.5-.1-2.2.4 0 .7-.1 1.1-.1-.5.8-.4 1.7.3 2.3h-.6zm.4-1.8c.1-.8 3.5-1.2 3.2.1.1 1.1-1.1 2-2.1 1.8-.9-.2-1.4-1.1-1.1-1.9zm20.6-2.6v4h-1.7c-.1-2.3-1.1-1.4-2.3-.4-2.3 1-5.3 0-7.9.5 2.4-3.7 8.3-2.4 11.9-4.1zm-4.6-3.3c1.4.2 2.7.4 4.1.6 0 .5.1 1 .1 1.5-1.8-.3-4.5.4-4.2-2.1zm2.6-39.2c-1.2 0-2.3-.6-3.5-.7.1.1.1.1.1.2h-.2c3.9 2.1 3.1 6.7 3.3 10.7 1 9.7 1.2 19.5 1.6 29.3-1.1-.4-4 .1-4.2-1.3-.6-3.8-.8-7.7-1.2-11.6-.1-5-2.2-9.6-2.7-14.5-.4-5.6-.6-11.1-1-16.7 5.4.8 11.2.3 16.3-1.6.1 12.4-.5 24.9-.2 37.3.4 6.7 1.8 8.2-6 8.3-1.1-13.1-.9-26.3-2.3-39.4zm2.4 39.8c2.1-.1 4.1-.3 6-.9.6 3.3-3.8 2.7-5.9 2.7 0-.7 0-1.3-.1-1.8zm2.1 6.7H423v-4.2c1.7 0 3.5 0 5.1-.5 2 1.5 4.3 2.8 6.7 3.4v-.1c.4.2 2 1 1.2 1.4-2.8-.2-5.9.5-8.6-.4-1.2-.4-2.9-2.1-2.7.4z"/><path d="M403.1 122c-.6 5.4 1 13.6-.8 17.6 1.3-12-.4-24.3.5-36.3.5 6.1.2 12.5.3 18.7zm1.4 15.7c-.6-10.8-.2-22.4-.1-33.4h.1c.2 11 .3 22.6 0 33.4zm-4.1-35.9c1.6 2.5.5 5.9.8 8.8 0 6.7.1 13.4-.3 20.1-.5 3.6.6 7.6-1.6 10.6-1.6.5-3.6 0-5.3.1.1-6 0-11.7 0-17.8 2.5.4 1.7-1.8 1.9-3.5-.4-2.4 1.4-8.1-2.4-7.4.6-2.7-1.2-10.4 1.1-11.4 1.9-.1 4-.6 5.8.5z" class="st15"/><path d="M383.3 130.7c-.1-6.9.2-13.8 1.1-20.7-.3-5.5 3.8-9.1 9-8.8-1.8 3.3-.3 7.9-.7 11.6-2.2 1.1-1.4 3.8-1.5 5.9.3 1.5-.7 4.4 1.2 5 .8 5.4-.2 11.8.2 17.6-10.8 1.1-9.5-1-9.3-10.6zm10-7 .1-.1c.8 6-.4 11.8.1 17.8h-.6c.1-6 .4-11.7.4-17.7z" class="st15"/><path fill="#edc658" d="M53.2 44.3c-1.3 1-2.1 1.6-1.3 1.5-2.8 1.5-5.9 1.8-8.9 1.3-.2 0-.3.3-.1.3.8.1 1.8 2.5 2.2 2.7 0 0-.7 0-.8.1-.3.2.3.8.8 1.2.4.3.4 2.7.7 3.2-.9-.6-2.3-1.3-3.4-.8-.2.1-.2 0-.3-.1-.4-.3-.3-.8-.5-1.2-.2-.1-.4 0-.7.2 0-.4.3-1.1-.4-1.1-.3.1-.3 0-.3-.3 0-.5.2-.9-.1-1.4-.1-.1-.1-.3 0-.5.2-.3.2-.3.1-.7-.2-1.8.4-3.7 1.6-4.9 3.2-3.5 8.8-2.7 12.3-5.5.5 4.2-.5 5.5-.9 6z"/><path d="M55.2 49.9c.6 1.1 1.8 3.2 1.7 5.8-.1 1.2-.2 2.3-.9 3.3-1.2 1.7-3.1 1.9-2.5 2.1-.3.6-.6 1.1-.9 1.7-2-1.2-4-2.3-6-3.5-.1-.1-.2-.1-.1-.3.1-.3.1-.7.1-1.1-1.9-.3-3.5-1.1-4.1-2.9-.3-.8.4-1.3 1.2-1.2 1.4.3 1.6 1 2.5 1.7.1-.4.1-.3-.1-.6-.2-.4-.4-.9-.6-1.3-.1-.3-.1-.4.1-.7.4-.9-.6-1.8-1.3-2.3 1.7.1.9-.8.2-1.4-.2-.2-.3-.3-.3-.6.1-.7-.6-.9-1.1-1.2 1.5.3 3.4.1 5 .1-.1.3.3.3.8.2.7-.5 1.5-.7 2.4-1 1.1-.4 1.8-1.3 2.7-2.1.3 1.1.5 2.1.8 3.2 0 .8.2 1.4.4 2.1z" class="st13"/><path d="M146.5 91.3c.1-3-.5-5.9-.9-8.8 0-.7-.4-1.4-.1-2.1.2-.3.6-.7.8-1 .7 1.9 1 3.9 1.6 5.8.3 1.4 1.3 3.3 1.3 4.7-.7 1.7-1.7 3.4-3.5 4.2-1.4.6-3.4-.1-4-1.5-1.5-3.1-1.2-6.4-1.8-9.7-.2-1.5 0-3.4-.7-4.7.1-.1 0-.3.1-.4-3.1-1.3-6.6-2-9.4-4 2.4.6 3 .2-.4-.5.3-.2.6-.2.9-.2 1.9.4 3.9.8 5.8 1.2.7.1 2 .7 2.2.4-.5-.4-1-.2-1.6-.6.6-.1 1.8.2 1.8.2-1.8-.5-3.3-1.2-4.8-2.2v-.3c2.8.3 5.6 1.8 8.1 3.1.9.4 1.7 1.1 1.8 2.1.7 4.6 2.1 9.1 2.5 13.8 0 .2 0 .4.3.5z" class="st1"/><path fill="#ae6e35" d="M166.8 53.8c-1.3 3.3.5 2.4 2 4.3.4.5.9 1.3.6 1.9-.5 1.1-1.2 2.1-.3 3 .3.3.7 1 .3 1.4-1.5-.3-2.7.6-2.2 1.2-.2.6-.8.9-1.4.6-.4-.1-1.1-.4-1.3-.8-.3-.6-.6-1.4-.3-2.1.2-.6.2-.9-.3-1-.3-.1-.8-.2-1-.3-1.3-.4-1.2-2.1-.3-2.9 1-1 1.7-2.8.3-3.8-1.1-.8-.2-2.3-.1-3.4.2.2 3.8 1.9 4 1.9zm-14.4 2c0 1.5.9 2.9 1.5 4.3.3.6 1 .7 1.5 1.1.6.6 2 .7 2.2.7-.2.5-3.2 4-4.5 4.3-.2-.2-.1-.7-.1-.9.4-1.8-.4-2.8-2.3-2.6-2.1-.3-.8-2.7-.4-3.9.3-.8.1-1.4-.6-1.9-1.4-.8-.8-2.9-.1-4.1.9-1.6 2.5-2.5 3-4.4.1 0 .7 0 .6.2-.3 2.1-.8 7.1-.8 7.2z"/><path d="M81.6 47.5c.2.2.1.3.1.5-.3.7-.7 1.3-.9 2-.8 2.3-1.8 4.5-2.2 6.9-.1.3-.2.7-.5.8-.2-.2-.2-.4-.1-.7.5-3.3 2.1-6.3 3.6-9.5zm-4.5 8.6c-.3 0-.2-.2-.2-.4.2-.9.5-1.7.8-2.6.1-.4.3-.1.4.1-.2 1-.6 1.9-1 2.9z"/><path d="M37.6 64.8c1.8-1 3.9-1.4 5.8-2.4.4-.2.7-.1 1 .2 2.4 2.4 4.6 5 7.1 7.2.4.4.8.9 1.3 1.3 1 .8 1.1 2.3 1.2 3.4.4 4.5-.3 8.9-1.1 13.3-.2 1-.2 1.6-.5 2.6-.2.5-5.2.2-3.9-.1.4-.1 1.2-.5 1.2-.8 0-1.1-2-.8-2.8-1.2l.1-.4c1.6-1.1 4.1-1.8 5.3-3.4.2-1.8-3.2.7-3.9 1l-.2-.4c.4-.7 3.7-4 1.6-3.9-.4-.9-1-.4-1.7-.1-.5-.1-.7 0-1.1.2-1.2.9-2.2 1.7-3.4 2.6-1.4.9-3.5 1.7-5.1.9-.4-.2-1-.5-1.5-.5.1-.6.4-1.3.5-1.8 1-1 2.7-1.4 3.3-2.8 1.7-3.1.3-6.4-.2-9.6-.1-1.6-1.4-2.4-1.9-3.9-.3-.4-1.1-1.3-1.1-1.4z" class="st11"/><path d="M58.6 90.6c-1.6.1-6.1.4-6 0 .3-1.4.5-2.8.8-4.2.1-2.6.5-5 .8-7.6.3-2.2.5-4.7-.5-6.8-.3-.7-.2-1.4.2-2 .7-1.1 1.2-2.3 1.6-3.6.6-1.3 1.3-2.6 2.1-3.8.3-.9 1.2-.3 1.8-.2.1 0 .1.1.2.1.4 0 .5.2.6.5.8 1.5 1.4 3 1.8 4.6 2.3 8.3-1 14.8-2.9 22.9h-.5z" class="st11"/><path d="M87.7 57.6c0-.4 0-.4.4-.6.9-.7 2-.8 3.1-1.2.3-.1.6-.2.6-.6.1-1.5-2.5-1.1-3.5-1.4.3-.6.4-1.9 1.3-2 2.6.1 5.3-.2 7.8.2.4 0 .7.4.6.7-.2.8-.4 1.5-.6 2.2s-.5 1.4-.7 2.1c-.1.3-.6.9-1 .9-2.7-.1-5.2-.2-7.9-.2l-.1-.1z" class="st3"/><path d="M81.3 55.1c.4-.3.2-.9.2-1.3.4-1.7.8-3.9 2.6-4.6.9-.3 2-.5 3-.4.7.1 1.5-.2 2.3 0 .8.3.9 1.4 1.3 2 .1.2.1.7-.1.7-.3 0-4.1-.2-4.1-.2-.3.8-.5 1.6-.5 2.4 0 .2 3.5.4 5.3.9.2.2.1.6-.2.7-1.7.3-3.3 1-5 1.5-.1 0-.2.2-.3.2-1.4-.5-4.3-1.9-4.3-1.9h-.2zM37.1 89.9c.4-1.3.8-2.8 1.2-4.1 3.8 1.1 6.4-2.7 9.4-4.3l.2.2c-1 1.5-2.3 2.8-3.4 4.2-.6.8-1 1.7-1.6 2.4-1.5 1.8-3.4 1.3-5.5 1.5l-.3.1z" class="st13"/><path d="M50.9 68.7c.7-.6 1-1.4 1.8-1.6.3-.1.8.1 1.2.1l.1.1c.9 1.1-.2 1.8-.9 3.1-.9-.2-1.5-1-2.2-1.7z" class="st15"/><path d="M37.3 80.3c-.4 1.2-.7 2.4-1 3.6-.1.3-.1.4-.4.3-.9-.2-1.7-.4-2.6-.6 1.5-.9 2.7-2.1 4-3.3z" class="st3"/><path d="M51.2 64.9c.5-.4 1-.7 1.5-1.2.3.3.8.5 1.1.8-.1.5 0 2.6-.9 2.1-.7-.3-1.3-1-1.7-1.7z" class="st15"/><path d="M83.7 48.9c.2-1.5 1.6-5.1 2.1-5.5.2.2.4.4.3.6-.3 1-.5 2.3-.8 3.3-.1.3-.2.8-.4 1.1-.3.1-.6.2-.9.4l-.3.1zm2-.8c.5-1.6 1.3-3.3 2.1-4.7h.2c.2 1.3-.4 2.6-.8 3.8-.2.8-.6 1-1.4.9h-.1zM52.3 84.5c-1.5 1.1-3.4 2.2-5.2 2.9-.4-.5.6-1.3 1-1.5 1.3-.5 2.5-1.3 3.8-1.7.1-.1.4.3.4.3zm-3-3.4c-.9 1.9-2.2 3.7-3.4 5.4-.1.2-.5.2-.6.1-.2-.1-.2-.4-.1-.5.9-1.1 1.6-2.1 2.5-3.2.2-.3.5-.7.6-1 .1-.5.5-.6 1-.8z" class="st13"/><path d="M54.9 49.9c-.9-.8-1.3.5-.2.3 0 .3-.2.4-.4.4h-.1c-.3-.3-1.9-1.2-1-1.5.4-.1.9-.2 1.3-.3.2 0 .3 0 .3.3v.5l.1.3z" class="st3"/><path d="M50.2 81.6c-.7 1.7-1.8 3.1-2.9 4.6-.3.4-.8.9-1.3.6.8-1.2 2.6-3.2 3.5-5 .1-.1.2-.4.5-.4l.2.2zM87.3 48c.5-.9 1-1.8 1.6-2.5h.3c0 .8-.3 1.6-.5 2.3 0 .1-.2.3-.3.3h-.9l-.2-.1z" class="st13"/><path d="M34.7 84.6c-1.3 1.8-1.9 3.4-3 5.3-.3.6-.8.6-1.5.6-.9 0-4.8-.1-5.7-.1-2.8-.1-3.5 2.3-5.7-.1-1-1-1.7-1.6-1.4-3 0-.3.2-.7.2-1 0-.2.3-.9.5-1 1.2-1.2 1.8-2.7 2.8-4.1 1.5-1.5 2.7-3 4.2-4.4 1.6-1.3 2.9-3 4.4-4.3 1.6-1.5 2.6-3.3 4.4-4.5 1-.7 2.6-1.8 3.4-2.8 1.9 2.4 3.2 5.7 3.4 8.8.6 2.4 0 4.1-.9 5.8-.2.4-.8.9-1.1 1 .5-1.2 1-2.4 1.5-3.7-.1.1-.2.1-.2.1-2.1 1.5-4.1 3.2-6 4.9-.6.5-1.2 1.2-2.1 1.3-2.1-.3-1-.1 2 .8l.8.4zm26.1-21.7c3.8.2 7.7.8 11.5 1.2 2.5-.1 3.7.1 6.1.2.1 0 .6 0 .2-.1.8-1.5 1-3.3 1.6-4.9 2 .9 4.3 1.5 6.3 2.3-.3 2.5-.8 5.4-1.4 7.9-.3 1.4-.9 3.3-2.6 3.6-2.1.4-4.3.8-6.4.6-2.4-.1-5.2 0-7.7-.3-2.3-.8-4.3-1.9-5.1-4.3-.8-2-2.1-3.8-2.4-5.8l-.1-.4zm-8.6.6c-1.6 1.1-2.3 1.7-3.5 3.1-1.2-1.3-2.6-2.6-3.8-4-.2-.2-.2-.5-.1-.8.3-.9.4-2 .8-2.8 2.2 1.6 4.6 2.8 6.7 4.3v.2z" class="st7"/><path d="M38.1 85.6c-.8 1.4-1 2.9-1.5 4.4 0 .2-.3.3-.5.3-1.5.2-2.7-.1-4.3 0 1-2 1.7-3.3 2.9-5.1 0-.1.1-.3.2-.3 1.1.1 3.2.7 3.2.7zm42.1-26.4c.2-1.1.5-2.3.8-3.3 0-.2.2-.4.4-.3 1.7.7 3.7 1.2 5.3 2.1-.1 1-.1 2.3-.2 3.3-2-.5-4.2-1.1-6.1-1.7l-.2-.1zm-27.1 4c.3-.4.5-1.4 1-1.4 1 0 1.9-.1 2.7-.8.5.4.8.9.4 1.4-.5.7-.9 1.5-1.2 2.3-.1.2-.2.3-.4.1-.9-.5-1.7-1-2.5-1.6zm-2.7 5.2c-.1-.1-.5-.2-.4-.4.4-.8.6-1.5 1.1-2.2.4.4.9.8 1.1 1.1-.8.3-1.4.8-1.8 1.5zm4.2-1.2c-.2-.2-.5-.3-.6-.5.1-.5.2-1.1.3-1.6.2.1.6.3.9.5-.1.5-.3 1-.6 1.6z" class="st7"/><path d="M49.3 89.6c-.7.1-1.4.2-2.1.2 0-.3.4-.7.7-.6.4.1 1 .1 1.4.4zm5-41.1c-.4.1-.8.1-1.2.2.2-.4.9-.5 1.2-.2z" class="st13"/><path d="M49.4 51.9c-1 0-1.6-.8-1.6-1.5-.1-.9.6-1.5 1.3-1.8.3-.2.6-.1.8 0 1.9.8 1.4 3.3-.5 3.3zm.8-.9c-1.1-.3-.1-1.6.4-.5 0-.3.2-.8-.1-.8-.6 0-1.2.2-1.8.4-.4.2-.5.4-.3.8.4.6 1.3.7 1.8.1zm-.1-1.9c-.6-.4-1.6.3-1.7.7.6-.3 1.1-.7 1.7-.7zm2-1.9c0-1 2.2-.9 1.8.1-.6-.4-1.2-.3-1.8-.1zM35.8 88.8c-.3.7-.8 1.2-1.5 1.2-1.2-.1 0-1.5.6-1.7.5-.1.6.1.9.5zm-1.5.8c.6-.1.9-.4.8-.6-.4 0-.7.2-.8.6zm47-31.6c.1-.2.1-.4.3-.6.1-.1.2-.3.4-.1h.1c.8-.1 1.1 1 .6 1.4-.6.5-1.3-.1-1.4-.7zm.3.1c.2.2.4.5.7.3.2-.2 0-.6-.4-.5 0 .1-.1.1-.3.2z"/><path d="M49.7 53.6c1.3.6 2.4.7 3.7.8.1 0 .3.1.3.3.1.5-.1 1.3-.8 1.1-1.4-.1-2.4-1.3-3.2-2.2z" class="st3"/><path d="M58.2 71.5c.2-.7.4-1.5 1-1.9.1 0 .3.1.4.1.4.5.8 1.1 1 1.8h-2.4z" class="st15"/><path d="M50.2 51c-.5.6-1.4.5-1.8-.1-.3-.4-.2-.6.3-.9.6-.2 1.2-.4 1.8-.4.1 0 .2 0 .2.2s0 .4-.1.7c-.5-1-1.5.2-.4.5z" class="st3"/><path d="M50.1 49.1c-.7 0-1.2.4-1.7.7.1-.3.4-.5.8-.7.3-.1.6-.3.9 0z" class="st13"/><path d="M34.3 89.6c.1-.4.4-.6.8-.6.1.2-.2.5-.8.6zm47.3-31.5c.2-.1.4-.4.6-.3.4.1.2.8-.2.7-.1 0-.3-.3-.4-.4z" class="st3"/><path fill="#ffeec0" d="M118.6 87.6c.6-.2 1.5-.4 2.1-.6.4-.1.5-.1.5-.5 0-.9.5-2.3 1.6-2.1.9.1 1.8.6 2.5 1.2.5.4.5 1.1.4 1.7-.1.3-.5.7-.8.7-1.9-.2-4-.2-5.8-.3 0 0-.1.1-.2 0l-.3-.1zm8.4 2c-.2.4-.7.7-1.2.5-.6-.1-1.2-.1-1.8-.2h-2.6c-.5.1-.6-.6-.5-1.2 0-.4.4-.7.7-.7 1.1 0 2.4 0 3.5.1.4 0 .9.1 1.3.2.6 0 .7.6.7 1.1-.1-.1-.1 0-.1.2zm-5.7-5.7c.1-.6.3-.8.8-.8.4 0 .7.2.8.6-.6.1-1.1.2-1.6.2z"/><path d="M27.1 153.8v-12c0-.4.3-.3.7-.5 6.7-2.3 13.3-4.8 19.9-7.1 14.3-5.2 28.9-9.7 43.5-14.3 14.9-4.9 29.9-9.3 44.9-13.9h.1c-.1 15.8.2 31.6.2 47.4-.2.6-.5.3-1 .4-9.4 0-19.5-.2-28.8-.2-26.4-.2-52.5.7-78.9.3h-.6z" class="st4"/><path d="M27.3 140.9c-.1-14.2.2-28.8 0-43 36.2-.4 73.1-1.3 109.2-1.6.1 2.8-.2 5.9-.1 8.7 0 .2-.3.5-.4.5-9 2.8-18.1 4.9-27 7.8-15.1 4.9-30.3 9.5-45.4 14.5-12.2 4-23.9 8.8-36 13l-.3.1z" class="st7"/><path d="M45.9 103.2c-.2 1.7.4 3.3.2 5-4.3-.3-8.8.1-13.1-.1h-.4c-.2-1.7.1-3.5 0-5.2 4.3 0 8.8.2 13.3.3z" class="st3"/><path d="M201.5 44.8h-7.1c-.5 0-.9-.5-.8-1 .1-1.1.2-2.1.1-3.2-.1-3-.4-6 .1-9 .1-.6.5-.6.8-.9.3-.4 1.1-.2 1.6-.3 4 0 8.1-.1 12.1 0 1.2-.1 1.4 1.4 1.3 2.3 0 3.4.2 6.9-.1 10.3v.2c.3.8-.5 1.6-1.3 1.5-2.3.1-4.5.1-6.7.1zm-.9-13.5c-1.6 0-3.6-.1-5.6-.1-.5.1-.6.6-.6 1-.3 1.7-.1 3.4-.1 5.1-.1 2.1-.2 4.2-.1 6.3 0 .7.8.3 1.2.4 4.4 0 9 .1 13.3 0 .1-.2.2-.4.2-.6-.3-4-.3-8 0-11.9-.1-.3-.4-.4-.6-.3-2.7.2-4.9.1-7.7.1z"/><path d="M194 54.9c0-2.8.1-5.6.1-8.5 0-.3.2-.7.5-.7.9 0 2.4-.1 3.3-.1 3.6 0 6.7.2 10.3.1.4 0 .7.2.8.6-.1 4-.4 7.8-.2 11.8l.3.4c0 .1-.1.3-.3.5-.2.1-.5 0-.7 0-2.9-.2-5.8-.1-8.6-.2-1.5 0-3 .1-4.5.1-.2 0-.5-.3-.6-.6v-3.5h-.4zm6.6-25.7c-1.6 0-3.5.2-5.5.2-.7-.2-.6-1.3-.8-1.9.1-3.6-.2-7.2-.1-10.8 0-.1.1-.2.1-.3.1-.2.2-.1.3-.1 4.5.1 9.1.1 13.6 0 .4 0 .6 0 .8.4-.1 3.9-.3 8.1-.1 12 0 .2.1.5-.1.6s-.7.2-.9.2c-2.5-.1-4.4-.2-7.2-.3h-.1zm0 2.1c2.9-.1 5 0 7.6-.2.3 0 .6.1.6.3-.3 4-.3 8 0 11.9 0 .2-.1.9-.5.7-4.3-.2-8.7 0-13-.1-.4 0-1.2.3-1.2-.4-.1-3.5.2-7.1.1-10.6.2-.6 0-1.3.5-1.8 2 0 4.2.3 5.9.2zM188.2 42c-3.5.5-5-3.9-3.5-6.5.5-.9 2-1 2.9-1.1 2.4-.4 5.5 1.7 4.4 4.3-.4 1.5-2 3.2-3.8 3.3zm3.7 10.3c0 1.1-.3 2.6-1.4 3.2-1.2.5-2.5.6-3.8.3-3-1-3.7-3.6-1.8-6 1.2-1.3 2.9-1.9 4.6-1.5 1.7.5 2.4 2.5 2.4 4zm.1-29.9c-.1 1.5-.3 2.9-1.5 3.6-1.2.5-2.7.7-4 .4-3-1-3.8-3.8-1.9-6.2 2.6-2.7 7.3-2.1 7.3 2v.2z" class="st4"/><path d="M196.3 27.1c0-.1 0-.2.1-.3h-.1v-.1c.4-.4.9-.6 1.4-.8 1.8-1 3.9-.1 5.7.5.3.1.7.2 1 .2.9.2 1.6-.2 2.3-.6.3-.3.7.1.5.5-.1.2-.3.3-.4.4-1.6 1.2-3.4.3-5.1-.2-1-.3-1.9-.5-2.9-.3s-1.7.6-2.5.7z"/><path d="M199.4 52c0 1 .1 2.3.1 3.3 0 .3-.6.7-.8.4-.1-1.2.1-3.5 0-4.9 0-.4-.1-.9.2-1.2.9-.8.4 2 .5 2.4zm4.6.6c.1-1-.1-2 .1-2.9 0-.1.3-.3.3-.3.4 0 .7.7.6 1.1-.1 1.4.1 2.8.1 4.2 0 .4.1.5-.2.9-.2.2-.8 0-.8-.3 0-1-.1-1.7-.1-2.6v-.1zm-.3-1V53h-1.4c-.9-.1-1.4-.7-1.9-1.4h3.3zm-5.8-1.2v4.2c-.5-.1-.7-.2-.6-.7.1-1.1-.2-2.3.3-3.3-.1-.1.1-.2.3-.2zm7.5 4.3-.1-4.3c.1.1.3.1.4.2.4 1 .3 2.5.4 3.6 0 .4-.1.5-.6.6h-.1zm-8.8-2.3c-.1-.1 0-.2-.1-.3.1 0 .2-.2.2-.2.1.1.1.3 0 .4l-.1.1zm10-.1c0-.1.2-.2.2-.3l.2.2-.2.2c-.1-.1-.1 0-.2-.1z" class="st7"/><path d="M199.4 22v-1.4h3.7V22h-3.7zm-.1 1.4c0-.3.1-.6 0-.9 1.2.1 2.4-.1 3.6 0 .1 0 .2.1.2.1v1.5c-1.1-.5-2.4-.8-3.8-.7z" class="st19"/><path d="m203 37-.1-.1c-1.2-1.2-2.8.7-4.1.4-.4-.1-1.1-.5-.9-1.1v-.7c.1-.6 0-1.6 1-1.6h3.9c1.1-.1 2.5.2 2.5 1.6h-.8c0-.4-.2-.6-.6-.8-1.3-.4-.4 1.7-.9 2.3zm-5.1 1.5c.8.5 1.6.9 2.5.5.4-.2.9-.3 1.3-.4.6-.1 1.6.4 1.5 1.1 0 .5-.1 1-.1 1.5 0 .3-.2.4-.4.4H200c-.6 0-1.2-.1-1.8-.2-.2 0-.3-.2-.3-.4v-2.5z" class="st7"/><path d="M203 38.7c-.9-.8-1.8-.5-2.6-.1-.9.4-1.8-.1-2.4-.5 0 0-.1-.1-.1-.2V37c.4.2.8.3 1.1.5.8.1 1.6-.3 2.3-.5.7-.3 1-.1 1.5.4l.3.2c.1.2 0 .6 0 .9l-.1.2zm.6-2.1-.2-.7c.9 0 2 .1 2.9.1.4 0 .4.1.4.5l-2.9.1h-.2z" class="st19"/><path d="M204.7 39.6c.1-.8.1-1.7 0-2.6h.6c0 .7.1 1.6.1 2.3 0 .3-.3.3-.6.4l-.1-.1z" class="st7"/><path d="M196.3 35.8h1c0 .2 0 .6.1.8-.2-.2-.7 0-.9-.3-.1-.1-.1-.4-.2-.5z" class="st19"/><path d="M187.1 40c-.4-.7-1.4-1.6-1.3-2.5.3-.6.8-1 1.2-1.5h.1c-.4 1.3 1.4.7 2.4.8.1 0 .2 0 .2.2 0 .6.1 1.1.1 1.7 0 .1 0 .2-.2.2-.8-.1-1.4.1-2.2.1-.4 0-.2.6-.3 1zm1.9 9.9c.5.8 1.5 1.8 1.5 2.7-.4.6-.6 1.1-1.5 1.7-.2-.3-.2-.9-.7-.8-.6 0-1.1-.1-1.7-.1-.1 0-.3-.2-.3-.4 0-.6-.1-1.1-.1-1.7 0-.1.1-.2.3-.2.8.1 1.2-.1 2-.1.4.1.5-.8.5-1.1zm-.1-25.3c-.1-.2-.1-.5-.2-.6-.1-.2-.2-.1-.4-.1h-1.6c-.1 0-.4-.2-.4-.3 0-.6-.1-1.2-.1-1.8 0-.1.1-.2.3-.2.8.1 1.5 0 2.3 0 .4-.1 0-1 0-1.3l.5.3c.5.7 1 1.5 1.1 2.3-.3.6-1.5 1.7-1.5 1.7z" class="st11"/><path d="M150.1 91.6c-.2-.6-.2-1.4-.6-1.9-1.1-2.8-1.8-5.4-2.4-8.3-.2-1-.9-2.2-.6-3.2.4-1.2 1.2-2.4 1.8-3.6 1.1-2 1.6-4.4 3.3-6.1 1.5-1.4 2.8-3.1 4.6-4.1 1.5 3.1 5.7 3.4 8.2 1.3.6.9 2.3 1.3 3.2.6.6-.4.1-.8.1-1.4 0-.3.5-.6.7-.5 2.4 1 5.1 1.5 7.2 3.2 2 1.4 3.3 3.4 4.9 5.3.4.5 1.1.8 1.4 1.4.3.4.8.8 1.1 1.2-2 3.4-2.7 7.1-4.4 10.4-.3.7-.5 2.1-1.5 1.7-.2-.1-.9-.3-1.1-.4-1.3-3.6-1.7-.6-1.5-.2.6 1.6 2 4.5 2.4 5.4 2 2.8 4.6 5.9 6.6 8.8-2.1 1.1-3.5 2.5-5.9 3.2-2.6.9-6 1.9-8.7 2.3-4.9 1-10.1-.5-14.8-1.9-.6-4.6-.7-9.3-.4-13.9 0 0 0-2.4-.2-2.2-.9.9-1.9 1.8-2.9 2.6l-.5.3z" class="st4"/><path d="m202.3 139.7 10 .4c1.4 3.3 3.9 5.8 6.3 8.4.3.4.8.7 1.1 1.1.6.9 1.5 1.4 2.5 1.8 1.1.4 2.1.8 3.2 1.2.3.1.5.4.5.7-3.6 0-6.9 0-10.5-.2-.8 0-1.4-1.3-2-1.8-1.3-1.4-.9 1-1 1.8h-2.3c-.4 0-.6-.1-.6-.5-.3-1.5-.9-2.9-1.5-4.2-.5-1.4-.9-1.9-1.8-3-1-2.2-2.8-3.4-3.9-5.2v-.5zm-22.8 13.4-3-.1c-.3-.7-.6-1.5-.9-2.2-.4-.1-.5.1-.6.3-.2.6-.3 1.1-.5 1.8-4.1 0-8.2-.1-12.2 0-.1 0-.4-.2-.6-.2 1.6-1.1 3.6-1.1 5.3-2.1.6-.2 1.1-.4 1.6-.8.6-.4 1.4-.6 1.6-1.5.3-.8.2-1.4.1-2.2-.4-2-1.2-4.3-2-6.2h8.8c.6 4.4 1.7 8.7 2.4 13.1 0-.1.1 0 .1.1z" class="st0"/><path d="m155.2 44.8 3.3-3.6c.5-.5 1.1-.6 1.7-.1.8.7 1.8.9 2.9 1 1.7.1 2.9 0 4.5.6.7.2.9.5 1 1.3.1 2-.4 3.9-.5 5.8-3.8-2.5-8.2-4.2-12.8-4.7-.2 0-.1-.3-.1-.3zm12.2 8.6c-1.2-1-2.8-1.3-4.3-2-3.1-1.8-10.9-3.9-11.1-3.7-2-1.1-4.6-.8-6.5-1.9-.5-.4-.6-.5-.8-1.1 7 1.5 14 3.9 20.7 6.7 1 .5 14 5.7 7.7 5.3-1.9-.2-5.4-3-5.7-3.3z" class="st12"/><path d="M175.5 107.8c1.4-.9 2.8-1.9 4.2-2.8 2.1 2.2 4.1 4.1 7 1.7 1.7 3.1 4.2 5.7 5.8 8.9 1.3 2.8 3.4 5.1 4.9 7.8 1.7 3 3.8 5.8 6 8.6-1.7.8-3.7.7-5.3 1.8-7.3-8.3-16-17.5-22.6-26zm-13.6 8.5c3-1.8 6-3.5 8.3-6.2 1.2 4.6 2 9.3 2.8 13.9.6 3.2 2 6.6 2.5 9.9-2.2 0-4.7.2-6.9-.2-.8-3.5-2.6-6.8-3.9-10.2-1-2.3-1.5-4.8-2.8-7v-.2z" class="st7"/><path d="M180.1 104.7c1.1-.9 2.1-1.8 3.1-2.8 1.1 1.5 2.2 2.9 3.2 4.3-2.4 2.4-4.5.4-6.3-1.5zm-4 31.8c-2 .2-4.5.1-6.6 0-.2-.1-.5-.2-.8-.4-.2-.6-.3-1.5-.5-2.3 2.4.4 5 0 7.4.3.1.8.4 1.3.5 2v.4zm29.3-1.8c-2 .4-3.7.9-5.7 1.2-.5 0-.9-.6-1.3-.8-.3-.2-.4-.4-.4-.8 1.7-1.1 3.8-1.3 5.7-1.8.5.7 1.1 1.4 1.7 2.2z" class="st7"/><path d="M224.5 110.8c1.3-.9 2.6-1.6 4-2.4 2.8-1.7 4.8-2.1 6.9.6.1.1.3.4.4.5.2.6.7 1.2 1.1 1.7 5 6.6 9.9 13.1 15.1 19.6 2 2.6 4.6 5 5.8 8.1.4 1 .1 2.1-.8 2.8-1.8 1.7-4 3.2-6 4.6-3.8-5.3-7.8-10.4-11.9-15.6.1-.1 0-.5.1-.5.4-.3.6-.5.4-.9-.9-3-3.2-5.4-4.9-8-.3-.4-.7-.6-1.3-.5h-1.1c-2.5-3.1-4.9-7.4-7.8-10z" class="st11"/><path d="M232.1 120.8c-.7.6-2 1-1.4 2.1 1 1.5 1.6 2.9 2.5 4.5s2 3 3.2 4.3c.6.7 1.1-.1 1.6-.4 4 5.2 8.2 10.6 12.2 15.8-1.6 1-3 2-4.7 2.7-.5.2-1.4.5-1.9.3-2.8-.6-4.1-3.6-5.8-5.7-4.9-6.8-9.8-13.8-14.7-20.6-1.4-2-3.1-4.1-4.1-6.3-.4-.7-.3-1.7-.1-2.5.8-1.9 3.1-2.5 4.6-3.7.3-.3.6-.2 1 0 .6.4 1.1.8 1.5 1.4 1.8 2.7 4.1 5.5 6.1 8.1zm-14.6 1c3.1 3.7 5.6 8 8.4 11.9 3 4.4 6.1 8.8 9.1 13.2.4.7 1 1.4 1.3 2.1 0 .2-.2.4-.4.3-2.9-3.8-5.4-7.9-8.1-11.8-3.4-5.2-7.3-10.2-10.3-15.7-.1.1 0 0 0 0zm11.1 12.4c.3 0 .5.3.6.5 3.3 4.8 6.4 9.8 10 14.4.3.3-.2.7-.4.3l-9.9-14.4c-.2-.3-.4-.5-.3-.8z" class="st11"/><path d="M250.3 146.5c-4.1-5-7.9-10.3-11.9-15.4l.3-.3c2.9 3.7 5.8 7.3 8.7 11.1 1 1.3 2.1 2.7 3 4.1.1.1.2.2.2.3s-.2.2-.3.2zm-23.8-14.9c-.1 0-.2-.1-.3-.1-2.6-3.7-5.1-7.3-7.7-10.9-.2-.6-.6-.9-1.3-.9.6-.3.8-.3 1.2.1.9 1 1.9 1.9 2.6 3.1 1.8 2.8 3.9 5.7 5.5 8.7.1 0 .1 0 0 0z" class="st11"/><path d="M153 51.2c.1-.7.5-1.2 1.2-.8l1.2.6c.6.2-.3 1-.5 1.3-.3.4-.7.4-1.1.3-.7-.2-.9-.8-.8-1.4" class="st20"/><path d="M237.5 131c-2.3-2.9-3.5-6.6-6.3-9 .8-.5 2.2-1.9 3-.7 1 1.3 1.9 2.6 2.8 3.9.8 1.3 1.7 2.6 2.2 4.1.1.2 0 .3-.1.5-.5.5-1 .9-1.6 1.2zm-6.1-7.9c.7.6 1.3 1.3 1.7 2.2 1.3 1.8 2.6 3.6 3.8 5.4 0 0-.3.1-.3.2-2-2.4-3.5-5.2-5.2-7.8z" class="st11"/><path d="M212.1 101.9c.1-.1.3-.3.5-.4 2.4 3.5 5 6.8 7.6 10.2-.1.1-.3.4-.5.5-2.3-4.1-5.1-6.4-7.6-10.3zm-2.8-1.1c.7-.9 2.2-1.1 3.2-.8.8.4-.4 1-.7 1.2-.8.6-1.6-.2-2.5-.4zm4.4 10.2c1.1 1.1 1.8 2.3 2.5 3.6 0 0-.1.1-.1.2-.8-1-1.5-2-2.2-3-.2-.3-.3-.5-.2-.8zm5.6 2.6c.2-1 1.1-1.3 1.8-1.8.3-.2.3-.2.7-.1-.4.6-2.1 1.8-2.5 1.9zm-3.7 2.6c0-.4.7-1 1.5-1.5.3-.2.8-.4 1.2-.2-.8.7-1.8 1.3-2.6 1.9l-.1-.2zm-7-12.6c-.2.3-.5.5-.9.7.2-.7.2-.8.9-.7zm-1.9 0h.5c-.1.2-.1.3-.2.6-.1-.2-.2-.3-.3-.6zm2.2-2.4c-.1.1-.3.2-.4.2 0 0 0-.1-.1-.1.1-.1.3-.2.4-.3.1.1.1.1.1.2z" class="st14"/><path d="M159 50.8c1.5-.1 2.7 1.8 1.5 2.9-1.1 1.3-3.7.4-3.4-1.4.2-.8 1-1.5 1.9-1.5zm0 .5c.2.1.4.2.5.2v-.1c-.1 0-.3-.1-.5-.1zm-3.2 5.6c-.3-.1-.5-.1-.8-.2 0-.2 0-.3.2-.4 1.6.1 3-.3 4.2-1.4.4.3.4.4.2.8-.6.8-1.2 1.5-2.1 2.1-.5.4-1 .3-1.6.3-.5 0-.1-.8-.1-1.2zm-2.8-5.7c.1-.1.1-.2.2-.3.4-.4.9.3.5.7-.3.2-.6-.1-.7-.4z"/><path d="M157.5 53c1.4.6 1.1-1.6-.2-.7.2-.3.3-.8.8-.7.8.2 1.5.4 2.3.6.2.4.1.9-.3 1.3-.8.9-2.2.5-2.6-.5z" class="st20"/><path d="M208.8 98.5c-.7.1-1.7 0-2.4.1-.2 0-.5 0-.6.4 2.1 0 4.1-.3 6.2-.3.5 0 .5.1.4.7-1 0-2-.3-2.9.3-1.1.5-2.4.6-3.6.9-.4.1-.8.3-.7.6 0 .3.4.6.7.6 1.4.3 3.3-.2 4.4.9-1.3.2-2.5.1-3.7.2-1.2 0-2.8.7-3.5-.7-.7-1.5-1.9-2.5-3.2-3.5-1-.8-2-1.6-3-2.5-2.8-2.7-6.1-4.5-9.1-7-1.8-1.8-4-3.5-6-5.2.5-.7.5-1.4.6-2.2.3-1.8.8-3.9.9-5.7 4.8 4.4 9.8 9.7 14.4 14.4 2.3 2.4 4.7 4.4 7.2 6.5 1.3 1.1 2.6.8 3.9 1.1 0-.1-.1.1-.1.2l.1.2zm-5.8 40.7c-.8-.9-1.7-1.8-2.5-2.7v-.1c1.6-.4 3.2-.7 4.8-1.1.4-.1.6 0 .8.3 1 1.3 2 2.5 3.1 3.9-2-.3-4.1-.3-6.2-.3zm-26.4 0h-6.5c-.2-.6-.4-1.5-.6-2.1 2.1 0 4.5-.2 6.6-.2.2.7.3 1.6.5 2.3z" class="st1"/><path d="M156.5 57.5v-.6c.6-.2 1.2-.3 1.8-.5-.6.4-1.1 1.1-1.8 1.1z" class="st20"/><path d="M89.1 88c2.3-3.4 4.7-6.9 6.9-10.3.3-.5.8-.6 1.2-.6 5.8 0 11.5-.2 17.4-.1.2 0 1.2 0 1.1.4-1.6 2.9-3.3 5.6-5.4 8.2-.5.7-1.1 1.4-1.7 2-.1.2-.7.6-.9.6-6.2 0-11.8-.1-17.9 0l-.7-.2zm9 .4h8.9c1-.1.5 1.6 0 1.6-5.8-.2-11.7.4-17.5 0-.4-.1-.8 0-.9-.5-.1-.3 0-.6.3-.7l.6-.3c2.9 0 5.8.2 8.7.2l-.1-.3zm-10.3.6c0 .2-.1.3-.1.5 0 .1 0 .3.1.4-4.3-.1-8.7-.1-12.9-.1-.5 0-.4-.8.1-.8 4.1.1 8.5 0 12.8 0z" class="st7"/><path d="M101.9 85.1c-.7-.1-1.8-.2-1.8-1.2.5-1 1.7-2 2.9-2 .4 0 .6.3.3.6-.3.5-1.1.4-1.3 1-.1.8.7.3 1.1.1.3-.4 1.7-.2 1.2.6-.6.8-1.4.9-2.3 1h-.1z" class="st20"/><path d="M35 91.4c-6.2.3-8.9.4-10 .6 0 0-.3-.1-.7.1-1.2.4-2.4.2-3.6.1-1.3-.1-2-1.3-2.8-2.1-.9-.9-.7-2.1-.6-3.3 0-.6.3-1.2.7-1.7 1.9-3.1 4-6 6.7-8.5 2.4-2.1 4.4-4.5 6.6-6.8 1.5-1.7 3.5-3 5.3-4.3.1-.1.2-.2.3-.4 0-.5.4-.7.8-.9 1.7-.9 3.5-1.4 5.3-1.9.2-.1.4-.2.7-.1s.5-.1.6-.4c.3-1 .7-1.9.7-2.9 0-.2.2-.3.3-.4-1.6-.6-2.9-2-3.2-3.7-.1-.3 0-.7-.3-.9-.5-.2-.4-.7-.2-1.1-1 .6-1.2.2-1-.8h-.1c-.5.1-.9-.2-.8-.7.1-.4.3-.6.2-1.1-.1-.3-.3-.7-.1-1.1.1-.2 0-.5 0-.7-.2-1 0-2 .4-3 1.1-2.1 3.2-3.7 5.4-4.5 2.5-.9 5.2-1.3 7.7-2.4.2-.1.3-.2.5-.3.5-.3.7.3.6.7-.1.9.3 1.7.2 2.6-.1 1-.3 2-.6 3 0 .1 0 .2.1.3.9 1.3.5 2.8 1.1 4.3.6 1.8 1.7 3.8 2.1 5.6.2 1.1 0 2.1-.5 3-.2.6-1 1.3-1 1.9 0 .1.2.1.3.2.8.4 1.3 1.2 2 1.7 1.4.8 3.2.8 4.7 1.1 2.4.7 4.9.6 7.3 1.1 2.3.4 4.7 0 7 .3.6.1.6.1.8-.5.4-1.1.7-2.2 1.1-3.3.8-1.5.8-3.1 1.2-4.7.1-.5.5-.5.7-.8.3-2.6 1.8-4.9 2.5-7.4.5-1.3.9-2.8 1.6-4 .2-.3.5-.5.9-.5.8.2.7 1 .6 1.6.2-.4.4-.8.7-1.2.1-.2.3-.4.6-.3s.5.2.5.5c0 .8 0 1.5-.2 2.3.2-.3.3-.5.6-.7.4-.2.8-.1.8.4.1.9-.3 1.6-.6 2.4.5.2 1.2.2 1.4.8.5.8.6 2.5 1.7 2.6h5c.6 0 1.3.6 1.2 1.2-.1 1.1-.4 2-.6 3-.2.9-.4 2.2-1.4 2.6-.4.2-.9.1-1.3.1-2.6 0-5.2.1-7.8-.1.2 2.7-.7 5.3-1.1 8-.5 2-.4 3.8-1.3 5.7-.2.4-.9 1.1-1.3 1.3-.8.5-2 .9-2.9.9-2.8.1-5.4.3-8.1-.1-3.1 0-5.9.1-9-.1.2 2-.7 3.8-1.1 5.7-.7 3.7-1.7 7-2.9 10.7v.1c.1.1.1.2.1.2s.1.2-.1.5c0 .8-13 .7-24.4.5zm-.6-6.6c-3-.9-6-1.6-9.1-1.8 0-.2.2-.4.4-.4 2.2-.4 4.4.6 6.6.7.7-.3 1.2-.8 1.8-1.3 2-1.7 4-3.5 6.2-5-.5 1.3-1 2.5-1.5 3.7.4-.1.9-.6 1.1-1 1-1.8 1.5-3.8.9-5.8-.3-3.1-1.5-5.8-3.4-8.3-.9.9-1.9 1.6-2.9 2.4-1.8 1.2-3.1 3-4.6 4.5-1.5 1.3-2.8 3-4.3 4.2-1.5 1.5-3 3-4.4 4.5-1 1.4-1.9 2.9-3.1 4.1-.2.2-.2.4-.3.6-.1 1.4-.4 2.9.8 4 .9 1.2 2.2 1.8 3.7 1.7 1.7-.2 3.4-.4 5.1-.5.9-.1 1.8-.1 2.7-.1.7 0 .6 0 1-.6 1-1.8 2-3.8 3.3-5.6zm3.5-19.7c.5.2.8.6.9 1.1.5 1.4 1.7 2.5 1.8 4.1.5 3.2 1.9 6.6.2 9.6-.6 1.4-2.3 1.8-3.3 2.8-.2.6-.3 1.1-.4 1.7.5.1 1 .2 1.4.4 1.6.8 3.5.1 4.9-.9 1.2-.9 2.4-1.7 3.6-2.6.4-.3.7-.4 1.2-.3.6-.2 1.2-.8 1.7 0 2.1-.1-1 3.5-1.4 4.2.7-.3 4.2-2.5 4-.7-1 1.5-3.5 2.3-5 3.3-.1.1-.2.1-.4.2v.1c.8.4 2.8.3 2.8 1.4 0 .3-.3.6-.7.7-1.4.3-2.8.4-4.1.3-2.6-.1-5.2-.1-7.9-.2-.1.2-.1.5-.2.8-.3 0-.8-.1-1.1 0-.2.3-.2.6-.4 1 1.3-.1 2.6.2 3.9.2 1.7-.1 3.5-.2 5.2-.1 2 .3 4.2.4 6.2 0 .4-.4 1-.7 1.2-1.2.3-.9.5-1.9.7-2.9.8-4.4 1.7-8.8 1.3-13.3-.1-1.2-.2-2.6-1.2-3.4-.5-.4-.8-.9-1.3-1.3-2.5-2.3-4.7-4.8-7.1-7.2-.7-.7-1.6.2-2.3.4-1.5.6-3.1.9-4.4 1.7 0 0 .1.1.2.1zm23.2-2c.3 2 1.5 3.8 2.3 5.6.8 2.4 3.1 3.8 5.4 4.6 1.2.2 2.9-.1 4.1-.1 2.8.1 5.1.8 7.8.1 1.2-.3 2.7-.3 3.4-1.5.6-.7.7-1.6.9-2.5.7-2.5 1.1-5.1 1.3-7.6-2.1-.8-4.1-1.3-6.1-2.3-.6 1.6-.7 3.3-1.5 4.7.4.1 1 0 1.3.3-.1 0-.1.1-.2.1h-.2c-2.4-.1-4.9-.3-7.3-.3-3.8-.1-7.5-.9-11.2-1.1zm-2.5 29.3c1.7-8.1 5.9-16.2 3.5-24.6-.4-1.6-1.1-3.1-1.8-4.6-.1-.3-.2-.6-.6-.5-.1 0-.1 0-.2-.1-.6-.1-1.5-.7-1.8.2-.8 1.2-1.5 2.5-2.1 3.8-.4 1.2-.7 2.5-1.4 3.6-.4.6-.5 1.2-.2 1.9.9 2.1.7 4.5.4 6.8-.2 2.6-.6 5.1-.7 7.7-.3 1.4-.6 2.7-.9 4.1-.1.4.2.8.3 1.2s.3.3.7.3c1.6.2 3.2.3 4.8.2zM47.5 58.9c.1 0 .1 0 0 0 3.2 1.6 9.3 1.6 9.3-3.1 0-2-.9-3.9-1.6-5.8-.2.5-.3.9-.8 1.1.8 1 .5 2-.8 2.1-.8 0-1.6-.2-2.3-.5-.2-.1-.6-.6-.2-.7.9-.1 1.7.4 2.6.3.8-.1-.6-1.4-.8-1.7-.7-.8-1.3-1.6-1.7-2.5.6.2.8.7 1.2 1.1-.1-1.1 1.2-1.7 2.1-1.3-.3-1.1-.7-2-.8-3.2-.9.8-1.5 1.6-2.6 2.1-.8.3-1.6.5-2.3 1-.6.2-1.1.6-1.4 1-.6-.3.1-.8.2-1.1-1.5 0-2.9 0-4.4-.2.5.3 1.2.5 1.1 1.2 0 .2.1.4.3.6.7.7 1.4 1.5-.2 1.4.7.5 1.7 1.4 1.3 2.3-.2.3-.2.4-.1.7.2.4.3.9.6 1.3.2.3.3.6.2 1-1-.7-1.4-1.7-2.8-2-.8-.1-1.1.2-.9 1 .6 1.8 2.2 2.6 4 2.9 0 .4-.1.7-.1 1.1 0 .2 0 .2.1.3 1.9 1.2 3.9 2.3 5.8 3.5.3-.5.6-1.1.9-1.7-1.3-.2-2.6-.7-3.8-1.1-.7-.3-1.5-.6-2.1-1.1zm5.8-18c-.7.5-1.4.9-2.1 1.3h-.3v-.3c1.2-1.1 2.8-1.5 3-3.3-3.5 2.7-8.7 2-11.8 5.4-1.2 1.2-2 2.9-1.9 4.6.1.3.2.4-.1.7-.2.2-.1.4 0 .5.3.4.1.9.1 1.4 0 .3.1.3.3.3.7-.1.5.6.4 1.1.2-.1.3-.2.5-.2.3-.1.4.3.5.5 0 .3.3 1 .7.8 1.1-.6 2.1.1 3 .8-.1-.5-.3-.9-.3-1.4.1-.6-.1-1-.6-1.3-.7-.5-1.5-1.3-.2-1.6l.1-.1c-.4-.3-.8-.7-.8-1.2 0 0 0-.1-.1-.1 0-.1-.1-.2-.1-.2.1-.2-.1-.2-.2-.3-.3-.3-.7-.6-.9-.9-.1-.1-.1-.2.1-.3 3 .4 6.3.2 9-1.3-.9.1-1.7.4-2.6.2-.2 0-.4-.1-.5-.3 1.5-.3 3.1-.4 4.4-1.4.5-.6.9-1.8.9-2.6-1.3 2.2-3.9 3.3-6.4 3-.1 0-.1-.1-.1-.1l.1-.1c2.2-.8 4.7-1.5 5.9-3.6zm42.4 16.9c.4 0 .6-.3.8-.6.2-.7.5-1.4.7-2.1.3-.8.5-1.6.7-2.3.1-.4-.1-.6-.5-.6-2.6-.4-5.2-.2-7.8-.2-.9.1-.9 1.2-1.2 1.8 1 .2 2 .1 3 .5.4.2.5.5.5.9s-.3.6-.6.7c-1 .4-2.2.5-3.1 1.2-.4.1-.4.1-.4.6m-6.2-2.6c1.5.5 2.9 1.2 4.4 1.6 1.7-.5 3.3-1.2 5-1.5.5 0 .1-.6-.2-.5-1.8-.3-3.6-.2-5.4-.4 0-.3.1-.4.3-.4s.2-.1.2-.2c0-.8.3-1.6.4-2.3-.2 0-.5.2-.5-.1 0-.2.2-.4.5-.4.9-.1 1.9-.2 2.8-.2.1 0 .2 0 .3.1v.3c-.2.5.6.2.9.2s.3-.1.2-.3c-.4-.7-.5-1.7-1.3-2-.7-.2-1.5.1-2.3 0-.9-.1-1.8.1-2.7.4-1.8.7-2.2 3.1-2.6 4.8.1.1.3.5 0 .9-.1-.1 0-.1 0 0zm-29.5 8.3c-2.2-1.5-4.6-2.6-6.6-4.3-.4.8-.4 1.8-.7 2.7-.1.3-.1.6.1.8 1.1 1.4 2.4 2.6 3.7 3.9 1.1-1.4 2-2.1 3.5-3.1zM37.3 89.7c2-.2 4.2.3 5.6-1.4.6-.7 1-1.7 1.6-2.4 1.1-1.4 2.4-2.7 3.4-4.2l-.1-.1c-3 1.6-5.5 5.4-9.4 4.3-.3 1.3-.7 2.6-1.1 3.8zm.7-4.1c-1-.3-2-.4-3-.6-.1 0-.2.1-.2.1-1.2 1.8-2.2 3.8-3.1 5.7 1.6-.1 3-.3 4.5-.6.2 0 .3-.1.3-.3.4-1.4.8-2.9 1.5-4.3zm42.4-26.5c2 .6 4 1.1 6 1.7.1-1 .1-2 .2-3-1.6-.9-3.5-1.4-5.2-2.1-.2-.1-.3 0-.3.2-.4 1.1-.6 2.1-.7 3.2zm-27.3 4.1c.8.6 1.6 1.1 2.4 1.6.2.1.3.1.4-.1.3-.8.7-1.6 1.2-2.3.4-.6.1-1.1-.4-1.4-.7.7-1.7.8-2.7.8-.4.1-.6 1-.9 1.4zM51 68.7c.7.6 1.2 1.4 2.1 1.6.3-.4.5-.8.8-1.2.5-.7.4-1.1-.1-1.7-.4-.1-.7-.2-1.1-.1-.8.1-1.2.9-1.7 1.4zM37.3 80.3c-1.3 1.2-2.5 2.3-4 3.2.9.2 1.7.4 2.6.6.3.1.3.1.4-.3.3-1.1.6-2.3 1-3.5zm14-15.4c.4.7.9 1.3 1.6 1.7.8.5.7-1.6.8-2-.3-.3-.7-.5-1-.8-.5.4-.9.7-1.4 1.1zm32.6-16.2c.3-.1.6-.3.9-.4.6-1.3.8-2.7 1.2-4.1.1-.2.1-.5-.1-.7-.5.3-1.8 3.6-2 5.2zm1.9-.7c.7 0 1.1-.1 1.3-.8.4-1.2.9-2.4.8-3.7h-.1c-.8 1.5-1.5 3-2 4.5zM52 84.5c0-.1 0-.1-.1-.2-1.3.3-2.5 1.2-3.8 1.7-.4.2-1.3.8-1 1.3 1.7-1 3.5-1.6 4.9-2.8zm-2.8-3.3c-.5.2-.6.2-.7.6-.2.4-.4.7-.6 1-.9 1.2-1.8 2.2-2.6 3.3-.1.1-.2.2 0 .3.1.1.3.2.4 0 1.2-1.6 2.6-3.3 3.5-5.2zm.8.4c-.3 0-.4.1-.5.3-.9 1.8-2.2 3.3-3.5 4.8.6.3.9-.2 1.1-.5 1.1-1.5 2.2-2.9 2.9-4.6zm4.8-32.5c0-.2-.1-.3-.3-.3-.4.1-.9.2-1.3.3s-.3.5 0 .6c.4.3.7.7 1.1.9.2-.1.4-.2.4-.4-1.2.2-.8-1.2.1-.4v-.7zM87.4 48h.9c.1 0 .2-.1.2-.2.3-.7.6-1.4.6-2.2H89c-.6.7-1.1 1.5-1.6 2.4zM50.5 68.2c.3-.7.8-1.2 1.5-1.4-.3-.3-.5-.6-.8-1-.2.6-1 1.7-.9 2.1 0 .2.1.2.2.3zm4.1-1.1c.2-.5.4-1 .6-1.4-.3-.2-.6-.3-.8-.5l-.3 1.5c.2.1.3.2.5.4zm-5.3 22.5c-.4-.3-.9-.3-1.4-.4-.3 0-.7.3-.7.6.7 0 1.4-.1 2.1-.2zm5.2-41.1c-.6-.9-1.2-.2-1.4.2.4-.1 1-.2 1.4-.2z"/><path d="M54.2 54.1c-.1.1-.2.1-.3.2.7 2.1-1.5 2-2.8 1.2-.9-.5-1.7-1.1-2.2-2-.1-.1-.1-.3 0-.4s.2-.1.4-.1c1.3.2 2.6.5 3.9.7.4.2.8 0 1 .4zm-4.5-.5c.9 1 1.9 2 3.2 2.1.7.1.9-.5.7-1 0-.2-.1-.2-.2-.2-1.3-.2-2.6-.3-3.7-.9zm9.1 18.9c-.4 0-.7 0-1-.1-.4-.1-.4-.1-.4-.5-.2-1.1 1.4-4 2.6-2.8.5.6 2.1 3 .6 3.1-.5.2-1.2.2-1.8.3zm-.6-1h2.3c-.2-.7-.6-1.3-1-1.8h-.3c-.5.5-.8 1.1-1 1.8z"/><path d="M137.6 90.7c0 1.3-.1 2.9.1 4.1 0 .2-.3.5-.5.5-.9 0-1.8.1-2.6.1-15 0-30-.2-45-.1H54.5c-11.2 0-22.8.5-33.9-.3.1-.1.5-.5.6-.5 1.7-.3 3.2-.2 5-.2-.1-1 0-2-.1-3.1 0-.3.2-.3.5-.3 7.4.1 14.9 0 22.3 0 29.4.2 58.9-.2 88.4-.2h.3z" class="st4"/><path d="M31.7 102.8c.1-.4.2-.5.7-.4h2.2c3.4.1 6.9.1 10.3.3.4.1 1.1.1 1.2.6 0 1.2.2 2.3.4 3.4.1.6 0 1.7-.8 1.8-4.3-.1-8.7.2-13-.1-.1 0-.3 0-.3-.2-.1-.2-.3-.4-.3-.6v-4.2c0-.4 0-.6-.4-.6zm14.1.4c-4.4-.1-8.8-.1-13.2-.3.1 1.7 0 3.4.1 5 4.4.1 8.9-.2 13.3.1.1-1.7-.4-3.1-.2-4.8z"/><path d="M137.9 90.6c-.1-.3-.4-.3-.7-.3h-41c-24.7 0-49.5 0-74.2-.1-.7 0-2.1 0-2.1 1-.1.9 0 1.8-.1 2.7 0 .2.1.4.1.5 0 .5 0 1.1.6 1.4.3.1.4.3.4.6v38c0 5.1.1 10.2.1 15.3v3.6c0 .1.1.2.1.3-32 .2-26.1 1 17.7 1.1 30.5 0 42.6-.4 36.4-.7l60.9.2c.6 0 .9-.7.8-1.2.1-18.6 0-37.3.1-56v-1.1c0-.2.1-.3.3-.3.4 0 .6-.2.6-.6v-2.9c.1-.4 0-1.5 0-1.5zm-1.7 14.4c0 .2-.1.3-.2.3-9 2.8-18.1 5.2-27 8.1-15.1 4.9-30.3 9.5-45.4 14.5-12.1 4-24.1 8.6-36.1 12.8-.1-14.2.1-28.4-.1-42.6 36.2-.4 72.8-1.2 108.9-1.5 0 2.8-.2 5.6-.1 8.4zm-1.6 48.5h-28.1c-19.2-.1-38.5.1-57.8.1h-3.5c-6 0-11.9-.1-17.9-.1v-11.6c0-.4 0-.4.4-.6 6.7-2.3 13.3-4.8 19.9-7.1 14.3-5.2 28.9-9.7 43.5-14.3C106 115 121 110.6 136 106h.1c-.1 15.8.2 31.6.2 47.4-.2.5-1.1 0-1.7.1zm2.6-58.3h-2.6c-15 0-30-.2-45-.1H54.5c-11.2-.1-22.5.4-33.6-.3.1-.1.2-.2.3-.2 1.7-.3 3.4-.2 5.2-.2-.1-1 0-2-.1-3.1 0-.3 0-.3.3-.3 7.4.1 14.9 0 22.3 0 29.5 0 59.1 0 88.6-.1 0 1.3-.1 2.6.1 3.9-.1.2-.2.4-.4.4z"/><path d="M107.8 88.7c.6 1-.3 1.8-1.4 1.8h-9.8c-2.7 0-5.4.1-8.1.1-.4-.2-.8-.1-1.2-.1-4.4-.3-8.9.2-13.3 0v-.4c-.3-.6-.1-1 .4-1.4-.1-.3.2-.3.4-.3h12c.6-.1 1.2-.1 1.6-.6 0-.4.2-.7.5-1 1.9-2.9 3.9-5.8 5.8-8.7.3-.4.6-.8.9-1.3.6-.7 2-.3 2.9-.4 5.7 0 11.5.1 17.2.1 1.6.2 0 2.2-.4 2.9-1.8 2.9-3.8 5.8-6.2 8.2-.4.4-.7.9-1.3 1.1zm-18.5-.8h18.4c.2 0 .3 0 .5-.2 2.8-3 5-6.4 7.1-9.9.1-.2.3-.6-.1-.6H97.3c-.5 0-.9.1-1.2.6-2.3 3.3-4.5 6.7-6.8 10.1zm8.8.8h-8.7c-.2 0-.4.2-.6.3-.5.1-.3.9.2.8.9-.1 1.7.1 2.6.1 5.1 0 10.2-.1 15.3 0 .5 0 .9-1.4-.1-1.3-2.9.1-5.8.1-8.7.1zm-10.3.3c-4.3 0-8.5.2-12.8.1-.4 0-.5.6-.1.6 4.3 0 8.6.1 12.8.2 0-.2-.1-.3-.1-.4.1-.2.1-.3.2-.5z"/><path d="M103.9 82.7c.6.2 1.5.6 1.1 1.4-.8 1.8-3.1 1.8-4.7 1.4-.8-.2-1.1-1.3-.7-2 .8-1.2 1.9-1.9 3.4-2 .8 0 1.1.4.9 1.2zm-2 2.3c.9-.1 1.8-.1 2.4-1 .2-.2.1-.4-.1-.5-.4-.1-.7-.2-1 .1s-1.3.8-1.2-.1c.1-.4.4-.6.8-.7.6-.3 1-1 0-.8-1.1.2-1.9.8-2.5 1.6-.1.1-.1.1-.1.2-.1 1 1 1.1 1.7 1.2zm16.3 2.7c.2-1.7 1-2.9 2.6-3.5.1-.6.1-1.3.9-1.5.7-.2 1.4.1 1.7.8.2.4.4.6.8.8.7.3 1.2.8 1.6 1.3.5.6.3 1.6.9 2.1 1 .3 1 1.4.8 2.2-.1.5-.7.6-1.2.6h-.1c-.4-.2-.7 0-1.1 0-2.2.3-4.4.1-6.5.1-.7 0-1.6 0-1.5-.9 0-.8-.1-2 1.1-2zm.6-.1c2 .1 4.1 0 6.1.2.3 0 .7-.3.8-.5.1-.6 0-1.3-.4-1.7-.7-.5-1.4-1-2.3-1.1-1.2-.2-1.7 1.1-1.7 2 0 .4-.1.5-.5.6-.7.1-1.3.3-2 .5zm8.1 2c-.1-.5-.1-1.1-.6-1.2-.4-.1-.9-.1-1.3-.2-1.1 0-2.3 0-3.4-.1-.3 0-.5.2-.6.5 0 .4-.2 1.3.4 1.2h2.6c.6.1 1.3.1 1.8.2.5.3.9-.1 1.1-.4zm-5.6-5.7c.5-.1 1.1-.1 1.6-.2-.2-.4-.4-.6-.8-.6-.5.1-.7.2-.8.8zm110.3 69.8c-.1-.1-.3-.1-.5-.1.2.1.4.1.5.1z"/><path d="M256.4 142.6c.2-.3.5-.6.8-.8 2.3-1.7.3-4.4-.7-6.2-1.5-2.4-3.4-4.4-5.2-6.5-.8-1.3-1.9-2.5-3-3.7-4.4-5.8-8.3-11.9-13.1-17.5-2.2-2.5-5.5-1.2-7.8.3-1.8.7-3.4 1.8-4.9 3-.7-.4-1.3-.3-1.9.1-2.4-3.5-4.9-6.9-7.3-10.4.3-.4.3-.8-.1-1.2-.1-.1-.1-.3-.1-.4 0-.8-.3-1.2-1-1.4-1.9-.4-4-.4-5.9-.6-.9-.1-1.5-1.2-2.2-1.7-3-2.9-6.4-5.3-9.2-8.4-1.6-1.9-3.4-3.6-4.9-5.5-2.5-3.1-5.5-5.6-8.2-8.4-2-1.7-3.5-3.9-5.5-5.6-1.8-1.3-3.7-2.7-5.9-3.2-.1-.6-.2-1-.6-1.4-.4-.5-.6-1.2-.4-1.8.3-.7.6-1.3.4-2.1-.3-1-.8-1.8-1.8-2.3-.4-.2-.6-.5-.7-1 .3 0 .6.1.9.2h.2c.4.1.7.2 1.1.3 1.5.5 3.1.5 4.6.5.4 0 .8 0 .9-.4s-.1-.8-.4-1c-.7-.6-1.4-1.1-2.2-1.5-1.2-.6-2.2-1.4-3.5-1.9-.3-.1-.5-.4-.5-.7-.1-2.8 1.1-5.5.5-8.3-.1-.4-.3-.8-.7-1-1.6-.9-3.6-.5-5.4-.7-1.5 0-2.9-2.1-4.3-.7-1.5 1.4-3.1 2.7-4.3 4.4-.3.4-.6.7-1 1-2.6-.7-5.3-1.5-7.9-2.1-.3-.1-.6 0-.8.3-.5 1.3 3.4 3.3 5.8 4.4.4.2.9.5 1.4.8-1.1 1-1.7 2.3-2.3 3.5-.5.8-1 1.8-.8 2.8.2.6.7 1.1 1.2 1.5.3.3.4.6.3 1-.5 1.1-1 2.2-.7 3.4.1.9.9 1.1 1.8 1.2 1.9.1 1.8 1.4 1.6 3 0 .6-.2.7-.6 1.1-2.1 1.8-2.8 4.4-4.1 6.8-1.1 1.8-1.6 4-2.7 5.8-.6-1.7-.6-3.9-2.1-5-1.4-1-8.7-5.2-9.8-3.2-.1.6.3.9.8 1.2-1.3-.3-2.4-.5-3.7-.5-.5 0-.9.1-1.1.6s-.1 1 .3 1.3c1.2 1 2.6 1.5 4 2.1 1.5.6 3.1 1.1 4.6 1.6.7.2.8.7.9 1.3.2 2.6.7 5.1.8 7.7.1 1.9.5 3.8 1.2 5.6.3.9.9 1.6 1.8 2 2.1 1.1 4.6-.3 5.5-2.4.2-.7.5-1.1.8-1.8.1.5.3.8.3 1.2.2 1 .7.9 1.3.4.8-.7 1.6-1.4 2.4-2.2h.1c-.6 3.1-.3 6.4-.2 9.6.2 1.9.1 4.3.6 6.1 1.5.7 3 .9 4.7 1.3.3.1.4.2.4.4.4 1.8.4 3.6 1.2 5.2 1.1 2.9 2 6 3.2 8.9 1.8 4.4 4.1 8.5 4.7 13.2 0 .7.3 1.4.4 2.1 0 .1.1.2.2.3.7.4.4 1.6.7 2.3-.8.1-2 .1-1.6 1.3.7 2 1.5 3.9 2.2 5.9.5 1.7-.9 3.3-2.5 3.8-1.7.8-3.7.8-5.4 1.6-.5.2-.8.5-1 1-.1.4 0 .6.3.8-10.6.1-17.5.2-17.5.3 0 .2 19.7.4 44 .4 21.6 0 39.5-.2 43.3-.4-.8 0-2.2-.1-4.1-.1v-.3c-.7-1.9-3-1.9-4.6-2.6-1.2-.4-2.1-1.5-2.9-2.4-.9-1.4-2.3-2.4-3.4-3.7l-1.8-2.7c-.7-.8-.8-2.4-2.1-2.4-.3 0-.6 0-.9.1-.2 0-.5 0-.6-.1-1.2-.9-2.2-2-3.1-3.1-1.2-1.4-2.4-2.9-3.4-4.5-1.2-2.3-3.1-4.1-4.5-6.2-5.2-8.1-10.1-16.4-15.9-24 .3-.4.3-.6.1-.8-2.2-2.8-4.3-5.7-6.4-8.6-1-1.6-2.2-3.2-2.6-5.1.7.4 1 .6 1.7.9.5.2 1.2 0 1.5-.4.9-1.3 1.5-2.8 2.4-4.2 3.8 3.3 7.3 6.8 11.4 9.7 1.7 1.1 3.2 2.3 4.7 3.6 1.4 1 2.6 2.3 4 3.3 2.6 2 .9 4.3 5.6 3.5.3 1.3.7 1.6 2 1.4 2.5 3.4 4.9 6.8 7.4 10.2-.4.4-.5.9-.3 1.4-.1.5-.5 1-.7 1.5-.6 1.2-.2 2.4.6 3.3 2.1 3.2 4.2 6.4 6.4 9.5 3.7 5.4 7.5 10.7 11.3 16 .6.8 1.2 1.5 1.7 2.3.5.9 1.3 1.2 2.1 1.6-.3.9-.1 1.7.8 2.4-2 .1-3.6.2-5.4.2-.2 0-.5 0-.6.2l.1.1h.1c.1.1.2.1.3.1 7.9.1 15.7.8 23.6.1v-.6c-2.5-.1-4.9-.1-7.4-.2 1.2-1.4.5-3.4-1.3-3.8 2.5-1.6 4.8-3.1 7.3-4.8 0 .8.1 1.6 1 1.9 1.1.6 2.5.7 3.2-.4.9-1.3-.2-3.4-2-3.3zm.5.7c.5.1.8.4 1.1.9-1.1 0-1.3.3-1.1-.9zm-35.8-31.5c.3-.2.3-.2.7-.1-.5.6-2.1 1.8-2.6 1.9.5-.8 1.2-1.3 1.9-1.8zm-1-.1c-.1.1-.2.2-.4.3-2.3-3.9-5-6.2-7.5-10.1.1-.1.2-.2.4-.3 2.4 3.4 5 6.7 7.5 10.1zm-8.3-10.5c-.8.6-1.6-.2-2.5-.4.7-.9 2-1 3-.7.8.3-.2.8-.5 1.1zm-42.9-42.8c.4.5.4 1 .2 1.6-.5 1.1-1 2.3 0 3.3.3.3.5.7.2 1.1-.5-.1-.8-.4-1.1-.9-.1-.3-.3-.6-.7-.8-.2.5 0 .9.2 1.4l-.6.9c-.3-.2-.4-.6-.5-.9-.1-.2-.1-.2-.4-.3-.2.7 0 1.3.9 2-.3.4-.7.4-1.1.4-.4-.1-1-.2-1.2-.6-.3-.6-.5-1.3-.2-2 .2-.6-.2-1.2-.8-1.3-.3-.1-.5-.1-.8-.2-1.3-.4-1.1-1.9-.3-2.7 1-1 1.7-2.9.3-3.9-1.1-.8-.2-2.1-.2-3.3.3.1.6.3.9.4-.1.4-.1.7-.2 1-.1.8.5 1.4.8 2.1 0 .1.1.1.2.2.2-.1.2-.3.2-.4 0-.4 0-.8-.3-1.2-.5-.5-.3-1-.2-1.5.3 0 .3.2.3.4 0 .3 0 .6.4.8.3-.2.2-.5.4-.8l.6.3c-.3 1.4-.7 3.2.7 4.2.9.6 1.1 1.5 1.5 2.5.9-1-.4-2.3-1.3-2.9-1.1-.8-.9-2.3-.6-3.5.2.1.3.2.4.2-1.1 3.4.8 2.4 2.3 4.4zm-5.1 6.9c-2.2 1.9-5.8 1.8-7.2-.9 1.6-1.1 3-2.3 4.2-3.8.1-.1.2-.3.2-.5-.1 0-.2.1-.2.1l-1.2.9c-2.5 1.9-5.5-.6-6.2-3.1-.5-1.7-.5-3.5-.6-5.2v-.2c.7.6 1.2.6 2.1.5-.3.6-.7 1.1-1.1 1.7-.2.3-.2.5 0 .8s.6.4.9.2c.6-.4 1.1-.8 1.6-1.2.2-.2.2-.4-.1-.6-.3.3-.6.5-1 .8-.3.2-.6.6-1.2.5.7-1.2 1.5-2.2 2.3-3.4.2-.4.5-.8.4-1.3-.5.3-.6.8-.9 1.1 0-.7.2-1.4-.4-1.9s-1.2-.4-1.9-.1c.1-.3.1-.6.2-.8l2.5.7c1.7.5 3.4 1.1 5.2 1.7.1 0 .1.1.2.1l.4.2c.1.1.3.2.4.2.2.1.2.3.1.5-.4 1.1-1.1 2.5 0 3.5.9.9.9 1.2.3 2.3-.5.9-1.3 1.9-1 3 .2.8.9 1.2 1.7 1.3.6.1.7.4.6 1-.2.6.1 1.5-.3 1.9zM155.4 51c.6.2-.3 1-.5 1.3-.3.4-.7.4-1.1.3-.7-.2-.9-.8-.8-1.4.1-.7.5-1.2 1.2-.8l1.2.6zm-.8-.8c.4-.1.5-.1.7.4-.2-.1-.4-.2-.7-.4zm3.9-9c.5-.5 1.1-.6 1.7-.1.8.7 1.8.9 2.9 1 1.7.1 2.9 0 4.5.6.7.2.9.5 1 1.3.1 2-.4 3.9-.5 5.8-3.8-2.5-8-4.3-12.5-4.8h-.2c-.2-.1-.2-.2-.2-.2l3.3-3.6zm-13.6 3.7c7 1.5 13.8 3.9 20.5 6.7.9.4 10.3 4.1 9.1 5-.1-.2-.6-.6-1.6-1.3-1.2-1.1-15.9-6.8-17.9-7.2-5.6-1.7-9.3-2.8-9.5-2.5-.3-.2-.5-.4-.6-.7zm8.2 20.3c.4-1.6-.5-2.8-2.4-2.6-2.1-.3-.6-2.7-.2-3.9.3-.8.1-1.5-.6-2-1.4-.8-.9-2.5-.2-3.7.9-1.6 2.6-2.6 3.2-4.5l.2.1v.1c-.5 2.1-2.7 3.6-2.4 5.8.7-.9.9-2 1.6-2.9-.2 1 0 1.9-.5 2.8-.2.4-.2.9 0 1.4.2-.2.3-.4.5-.6 0 1.7.7 3.2 1.4 4.7.3.6.7 1 1.3 1.3.7.7 1.5.7 2.4.8-.2.5-.5.7-.9.9 0-.2-.1-.3-.1-.5-.1 0-.2-.1-.4-.1-.2.4-.4.8-.5 1.3s-.1.5-.6.8c.2-.4.2-.8.2-1.2 0-.2 0-.4-.3-.4-.2.5-.4 1.1-.8 1.6-.4.4-.5 1-.9 1.5-.2-.2 0-.5 0-.7zm-10.4 28.4c-2.7-2.5-1.7-6.7-2.5-10-.4-1.8.1-3.9-.8-5.5.1-.1.1-.2.2-.3-3.1-1.3-6.6-1.9-9.4-3.9 2.4.6 4.8 1.2 7 2.1.4.1.4.1.6-.2-.7-.6-4.7-1.8-8.1-2.5.3-.2.5-.1.8-.1 1.9.4 3.8.7 5.7 1.1.7.1 1.3.4 2 .6.2.1.5.2.7-.1-.5-.4-1.2-.3-1.8-.7.6-.1 1.1.4 1.7.2l.1-.1c-1.8-.5-3.4-1.2-4.9-2.2v-.1c2.8.3 5.4 1.7 7.9 3 .9.4 1.7 1.1 1.8 2.1.7 4.6 2.1 9.1 2.5 13.8 0 .2 0 .4.4.6.1-3-.5-5.9-.9-8.8 0-.7-.4-1.4-.1-2.1l.6-.9c.7 1.9 1 3.8 1.6 5.7.3 1.4 1.2 3.1 1.2 4.5-1 2.4-3.5 5.8-6.3 3.8zm22 29.9c-1-2.3-1.5-4.8-2.8-7v-.1c3-1.8 6-3.5 8.3-6.2 1.2 4.6 1.8 9.3 2.6 13.9.6 3.2 1.9 6.3 2.4 9.6-2.2 0-4.3.2-6.5-.2-.8-3.6-2.7-6.7-4-10zm4.2 12.6c-.2-.6-.4-1.3-.6-2.1 2.4.4 4.8 0 7.2.3.1.7.2 1.3.4 2-2 .2-4.1.2-6.2.1-.2 0-.4-.1-.8-.3zm7.1 1c.1.6.3 1.3.5 2h-6.3c-.2-.6-.3-1.3-.5-1.9 2.1 0 4.2 0 6.3-.1zm-.9 16.3c.2-.3.2-.7.3-1 .2.4.3.7.4 1h-.7zm1.4-.5c-.3-.7-.6-1.5-.9-2.2-.4-.1-.5.1-.6.3-.2.6-.3 1.1-.5 1.8h-11.6c-.4 0-.6.1-1-.1 1.5-1 3.5-1 5.1-2 .6-.2 1.1-.5 1.6-.9.7-.4 1.4-.7 1.7-1.6.3-.8.1-1.6 0-2.4-.4-2-1.1-4-1.9-5.9h8.4c.3 1.2.4 2.5.6 3.8.5 3.1 1.6 6.1 1.9 9.2h-2.8zm11.2.3c-2.4.2-4.9.2-7.3.2 0-.1 0-.2-.1-.3-.4-1.1-.6-2.3-.8-3.5-.6-2.5-1.1-5-1.5-7.5-.9-3.9-2.2-7.7-3-11.6-1.8-7.8-2.6-15.8-4.7-23.6 1-.2 1.9-.4 2.8-.7 2.5 2.5 4.4 5.5 6.7 8.1 1.9 2.6 4.5 4.4 6.5 6.9 2.4 2.5 4.7 5.1 6.7 8 1.4 1.5 2.7 3.1 4.1 4.6.2.2.3.4.3.6 0 .4.2.8.6 1 1.4 1.1 2.7 2.3 3.8 3.7-.6.5-.6.7-.2 1.3 1 1.3 2.2 2.4 3.3 3.6 1.4 1.7 2.7 3.5 3.1 5.7.2 1.1.4 2.2.9 3.2.1.1.1.3.2.4-6.3 0-13.6-.1-21.4-.1zm25.4.3v-.2c.1-.4.1-.7.2-1.2.4.4.7.9 1.1 1.4h-1.3zm-.8-13.3c1.4 3.3 3.9 5.8 6.2 8.4.3.4.8.7 1.1 1.1.6.9 1.5 1.4 2.5 1.8 1.1.4 2.1.8 3.2 1.2.3.1.5.2.5.5-3.5-.2-6.8 0-10.4-.2-.8-.1-1.3-1.3-2-1.8-1.3-1.4-.9 1-1 1.8h-2.3c-.4 0-.6-.1-.6-.5-.3-1.5-.9-2.9-1.5-4.2-.5-1.4-.9-1.9-1.8-3-.9-2-2.7-3.3-3.8-5.1h9.9zm-6.2-4.6c1 1.3 2.1 2.5 3.1 3.9-2-.3-4.1-.3-6.2-.3-.8-.9-1.7-1.8-2.5-2.7v-.1c1.6-.4 3.2-.7 4.8-1.1.4-.1.6 0 .8.3zm-.7-.9c-2 .4-3.7.9-5.7 1.2-.5 0-.9-.6-1.3-.8-.3-.2-.4-.4-.4-.8 1.7-1.1 3.8-1.3 5.7-1.8.5.7 1.1 1.4 1.7 2.2zm-12.9-19.1c1.3 2.8 3.4 5.1 4.9 7.8 1.7 3 3.8 5.8 6 8.6-1.8.7-3.7.6-5.4 1.7-7.5-8.5-15.6-17-22.5-25.9 1.4-.9 2.8-1.9 4.2-2.8 2.1 2.2 4.2 4.1 7 1.7 1.7 3.1 4.2 5.7 5.8 8.9zm-6.1-9.4c-2.4 2.4-4.5.4-6.3-1.5 1.1-.9 2.1-1.8 3.1-2.8 1.1 1.5 2.2 2.9 3.2 4.3zm-8.1-20c-.3.7-.6 1.7-1.6 1.3-.2-.1-.4-.1-.6-.2-2.1-6-3.4-12.2-5.5-18.2-.1-.2-.1-.5-.5-.5-.1.3 0 .6.1 1 .6 2.1 1.3 4.1 1.8 6.2.5 3.2.8 6.4 1.6 9.5.4 2.8 2.1 5 3.3 7.5 2 2.8 4.1 5.6 6.1 8.5-2.1 1.1-4 2.6-6.4 3.3-2.6.9-5.2 1.6-7.9 2-4.9.9-9.8-.2-14.5-1.6-.6-4.6-.8-9.4-.5-14v-.1c.5-1.3.3-2.7.3-4.1 0-1.1.1-2.3-.1-3.4-.2-1.4-.1-2.8-.2-4.1-.3-2.6-1-5-1.4-7.6h-.1c-.1 2.7.7 5.3 1 8 .1 2.8.2 5.6.1 8.4 0 .3-.1.5-.3.7-.9.8-1.8 1.7-2.7 2.5-.2-.6-.2-1.1-.6-1.6-.1-.1-.1-.1-.1-.2-1.2-3.3-2-6.7-2.9-10-.1-.4-.1-.8 0-1.2 1-2.5 2.3-4.8 3.3-7.3 1-2.3 3.2-3.7 4.9-5.5.4-.3.8-.5 1.3-.8 1.5 3.1 5.7 3.4 8.2 1.3 1 1.5 4.2 1.4 3.5-1 0-.3.2-.4.4-.3 2.1.8 4.2 1.4 6.1 2.5 2.5 1.5 4.2 3.8 5.9 6.1.4.5 1.1.8 1.4 1.4.3.5.8.8 1.1 1.2-1.8 3.2-2.8 7-4.5 10.3zm28.3 16.7c-1.2 0-2.8.7-3.5-.7-.7-1.5-1.9-2.5-3.2-3.5-1-.8-2-1.6-3-2.5-2.8-2.7-6.1-4.5-9.1-7-1.8-1.8-3.7-3.5-5.7-5.2.5-.7.5-1.5.6-2.3.4-1.7.7-3.4.9-5.2 4.8 4.4 9.2 9.3 13.8 14 2.3 2.4 4.8 4.7 7.3 6.8 1.1 1 2.6.7 3.9.9v.1c-.7.1-1.5.2-2.2.3-.2 0-.5 0-.6.4 2.1 0 4.1-.3 6.2-.3.5 0 .5.1.4.7-1 0-2-.3-2.9.3-1.1.5-2.4.6-3.6.9-.4.1-.8.3-.7.6 0 .3.4.6.7.6 1.4.3 3.3-.2 4.4.9-1.3.2-2.5.1-3.7.2zm2.3-1.7c-.1.1-.3.2-.4.2 0 0 0-.1-.1-.1.1-.1.3-.2.4-.3.1.1.1.1.1.2zm-.8-.4c-.4.7-1 .5-1.6.3.5-.1 1-.2 1.6-.3zm-1.1 3.4-.3-.6h.5c-.1.2-.1.3-.2.6zm.7.1c.2-.7.2-.8.9-.7-.2.3-.5.5-.9.7zm1.9-.7c.5-.1.9 0 1.4-.2.4-.2.4-.6.1-.9-.2-.1-.4-.3-.5-.6.1.1.3.1.4.2.3.3.6.3 1 .1 2.7 3.2 4.5 7.2 7.3 10.4-.2.5-.3.9-.4 1.4-.9-.5-1.5-.3-2 .1-1.4-1.5-2.3-3.5-3.5-5.2-1.2-1.8-2.4-3.6-3.8-5.3zm4.3 8.2c-.2-.3-.3-.5-.2-.8 1.1 1.1 1.8 2.3 2.5 3.6 0 0-.1.1-.1.2-.8-1-1.5-2-2.2-3zm3.2 3c.3-.2.6-.5 1-.3l-2.4 1.8c.1-.4.7-1.1 1.4-1.5zm1.3 5c.9 1 1.9 1.9 2.6 3.1 1.8 2.8 3.9 5.7 5.5 8.7-.3-.1-.4-.4-.6-.6-2.4-3.4-4.7-6.8-7.2-10.2-.3-.6-.6-1.2-1.5-1.1.6-.3.8-.3 1.2.1zm17.8 29.5c-.3.1-.5-.3-.7-.5-2.6-3.8-5.2-7.5-7.7-11.3-3.4-5.2-7.3-10.2-10.4-15.6 0 0 .1 0 .1-.1 3.1 3.7 5.6 8 8.4 11.9 3 4.4 6.1 8.8 9.1 13.2.4.7 1 1.4 1.3 2.1 0 .1-.1.2-.1.3zm2.5 0-9.9-14.4c-.1-.2-.3-.4-.2-.8.3 0 .5.3.6.5 3.3 4.8 6.4 9.8 10 14.4.2.4-.3.7-.5.3zm.9 3.8c.5-.5.8-1.1.9-1.9 1.2 0 2.4.2 3.6-.4-.1.9.1 1.5.5 2.3h-5zm5.7-1.6c.4.1.9 0 1 .6-.2.2-.3.5-.5.7-.4-.2-.6-.7-.5-1.3zm.8 1.6c.2-.3.4-.5.5-.8.5-.2.8.2 1.3.4-.5.5-1.1.5-1.8.4zm.5-1.5c.2-.2.3.1.4.2-.2.2-.5 0-.4-.2zm1.5.9c-.3-.2-1-.6-.5-.9.1-.1.3-.2.4-.3-.2-.2-.4-.1-.6-.1-.9.4-.3-.7-.8-1-.3.3 0 .7 0 1-.4.4-.8 0-1.2 0-.1-.6.3-.9.8-1 1.4-.8 2.6 1.1 1.9 2.3zm-3-2.8c-.5.2-1.1.2-1.6 0-2.8-.6-3.9-3.5-5.6-5.6-4.9-6.8-9.8-13.7-14.7-20.5-1.4-2-2.9-3.9-3.9-6.1-.4-.7-.5-1.4-.3-2.2.8-1.9 2.9-2.7 4.4-3.9.3-.3.6-.2 1 0 .6.4 1.1.8 1.5 1.4 2 2.6 4 5.3 6 7.9-2.9 1.7-1.4 2.2-.1 4.4 1.4 2.3 2.7 4.7 4.6 6.7.6.7 1.1-.1 1.6-.4l12 15.6c-1.6.9-3.1 2-4.9 2.7zm-13.7-26.6c.7.6 1.3 1.3 1.7 2.2 1.1 1.9 2.4 3.6 3.6 5.4-2.2-2.3-3.6-5-5.3-7.6zm-.2-1.1c.8-.5 2.2-1.9 3-.7 1.8 2.6 3.9 5 5 8 .1.2 0 .3-.1.5-.5.5-1 .9-1.6 1.2-2.3-2.9-3.5-6.6-6.3-9zm19.1 24.5c-4.1-5-7.9-10.3-11.9-15.4l.3-.3c3.9 5.1 7.8 10.1 11.6 15.3.2.1.1.3 0 .4zm.7-.4c-3.8-5.3-7.8-10.4-11.8-15.5.1-.1.1-.2.2-.2.4-.3.5-.8.3-1.2-.9-3-3.2-5.4-4.9-8-.3-.4-.7-.9-1.3-.8-.3 0-.7.1-1.1.1-1.9-2.4-3.7-4.8-5.5-7.2-.7-1-1.4-1.8-2.3-2.5 1.3-.9 2.8-1.4 4.2-2.2 2.9-1.9 4.8-1.6 6.9 1.2.2.6.7 1.1 1.1 1.6 5 6.6 10 13.2 15.2 19.7 1.9 2.5 4.1 4.8 5.5 7.7.5 1.1.4 2.2-.6 2.9-2 1.4-3.9 3-5.9 4.4zm5.4-2.8v.6l-.4.4c-.2 0-.5-.1-.7-.2 0-.4.3-.3.5-.5l.6-.3zm-1.1 1.3c.3 0 .5.1.8.1-.1.3-.3.5-.4.8-.4-.2-.4-.5-.4-.9zm.5 1.1c.3-.3.4-.5.6-.8.1.2.3.4.4.6.3-.3-.1-.5.2-.8.3 0 .7-.1 1-.1.3 1.5-1.2 1.4-2.2 1.1zM188.1 18.2c1.3 0 2.7.2 3.5 1.5 1.5 2 1.2 6.1-1.5 6.9-1.3.4-2.8.6-4.1.1-2-1-3.3-3.4-2.2-5.5.6-1.9 2.3-3.2 4.3-3zm3.7 4.2c-.1-4.1-4.4-4.8-7-2-1.8 2.4-1.2 4.8 1.8 5.8 1.2.3 2.6.1 3.8-.4 1.2-.8 1.3-2 1.4-3.4z"/><path d="M188.4 21c-.1-3.2 1.8.2 2.3 1.2.3.5.2 1-.2 1.5s-1.6 2.1-2.1 1c-.2-.5-.2-.5-.7-.5s-1 0-1.4-.1c-.2 0-.4-.1-.4-.4-.1-.8-.1-1.5-.2-2.3 0-.4.1-.5.5-.5.7 0 1.3 0 2 .1h.2zm.5 3.5.1-.1c.5-.4 1-.9 1.3-1.5-.1-.9-.8-1.6-1.3-2.3-.1.3.2 1-.2 1s-.8.1-1.3.1h-1c-.1 0-.2.1-.2.2 0 .6.1 1.1.1 1.7 0 .1 0 .2.2.2h1.7c.5-.2.5.3.6.7zm-1.1 17.8c-2.8.2-4.3-2.2-4.1-4.8.1-1.4.7-3.1 2.3-3.5 1.3-.5 2.8-.6 4.2-.1 2 1 3.3 3.4 2.2 5.5-.7 1.8-2.6 3.1-4.6 2.9zm.3-.5c1.7 0 3.4-1.5 3.9-3.2 1.1-2.6-2.1-4.7-4.4-4.3-1 .1-2.2.3-2.8 1.2-1.4 2.6-.2 6.7 3.3 6.3z"/><path d="M187.7 36.3c.7-.1 1.4-.1 2.1 0 .2 0 .4.1.4.4.1.7.1 1.5.2 2.2 0 .4-.1.5-.5.5-.7 0-1.3 0-2-.1h-.3c.1.8 0 2.1-1 1-.5-.8-1.2-1.5-1.4-2.5-.2-.9.7-1.5 1.3-2.1.6-.5 1.4-.5 1.2.6zm-.6 3.7c.1-.3-.2-1 .2-1.1.8-.1 1.5-.1 2.3 0 .1 0 .2-.1.2-.2 0-.6-.1-1.1-.1-1.7 0-.1-.1-.2-.2-.2-1-.1-2.8.5-2.4-.8h-.1c-.4.5-.9.9-1.2 1.5-.1.8.9 1.8 1.3 2.5zm-3.7 12.6c.2-3.6 2.9-5.4 6.2-4.6 2.1.4 3 2.8 2.8 4.7-.1 1.5-.8 3.1-2.3 3.5-1.3.4-2.8.6-4.2.1-1.3-.8-2.4-2.1-2.5-3.7zm8.5-.3c0-1.5-.7-3.5-2.3-3.8-1.7-.4-3.5.2-4.6 1.5-1.8 2.4-1.2 4.8 1.8 5.8 1.2.3 2.6.1 3.8-.4.9-.7 1.2-2.1 1.3-3.1z"/><path d="M188.5 50.7c.1-.4-.2-1.1.3-1.3s.9.6 1.1 1c.5.9 1.6 2 .7 3-.4.5-1.6 2.1-2.1 1-.2-.5-.2-.5-.7-.5s-1 0-1.5-.1c-.2 0-.4-.1-.4-.4-.1-.8-.1-1.5-.2-2.3 0-.4.1-.5.5-.5.7 0 1.3 0 2 .1h.3zm.5-.6v.8s-.1.3-.2.3c-.4 0-.8.1-1.3.1h-1c-.1 0-.2 0-.2.2 0 .6.1 1.1.1 1.7 0 .1.1.2.2.2h1.7s.4.5.7.8c.5-.4 1-1 1.3-1.6v-.2c-.2-.9-.7-1.6-1.3-2.3zm4.5-25.3c0-2.1.2-5.2.1-7.6V17c-.3-1.7 1.6-1.1 3-1.3h9.7c.8 0 1.6-.1 2.4.1.6.1.8 1 .7 1.4v.1c.3 3.1.1 6.3.2 9.5-.1 1.1.3 2.9-1.2 3.2-4.5 0-9.1.2-13.6-.1-.1 0-.2-.1-.2-.1 0-.2-.2-.2-.3-.3-.4-.2-.5-.6-.6-1-.2-1.1-.2-2.2-.2-3.7zm7.1 4.3c2.9.1 5 0 7.6.2.2 0 .4-.1.6-.2s0-.3 0-.4c-.2-4-.1-8 .1-11.9-.1-.4-.1-.4-.6-.4-4.5.1-9.1.1-13.6 0-.1 0-.2-.1-.3.1-.1.1-.1.2-.1.3-.1 3.6.2 7.2.1 10.8.2.6 0 1.5.7 1.7 1.9-.1 3.9-.1 5.5-.2z"/><path d="M196.4 24.9c0-.2-.1-.3 0-.4.6-.7 1.7-.8 2.5-1.1-.2-1.2-.3-2.5-.2-3.7 0-.6.2-1.1.8-1.5s1.6-.1 1.8.7c.2.4-.4.6-.6.3-.2-.6-.9-.5-1.1.1-.1.3-.1.6-.2.9h3.8v-.5c-.2-1.8 2.5-1.9 2.5-.1-.1.4-.4.1-.5-.1-.2-.5-.7-.6-1.1-.3-.3.2-.1.6-.1 1 .1 1.3 0 2.6 0 3.9.1.2-.2.6.1.6.7.2 1.4 0 2.1-.2.2-.1.4.2.4.4-.1.1-.2.3-.3.4-2 1.1-3.5-.8-5.5-.9-1.7-.5-3.1 0-4.4.5zm3-2.9h3.7v-1.4h-3.7V22zm0 1.3c1.3 0 2.4.2 3.6.7v-1.4c0-.1-.1-.1-.1-.1-1.2-.1-2.3.1-3.5 0v.8zm-2.1 13.6h-.9c-.1 0-.3-.1-.2-.3 0-.1-.1-.1-.1-.2-.3-.3-.3-.9-.1-1.2.1-.1.1-.2.2-.1h.1c.3-.1.7-.1 1-.2 0-.2.1-.4.1-.7.1-.8.8-1.2 1.5-1 1.7-.2 3.4 0 5.1 0 .8 0 1.6.6 1.8 1.3.1.2.1.4.3.5 0 .3-.1.3.4.3h.6c.1 0 .2.1.2.1.2.5.2.8 0 1.2-.1.5-.8.2-1.2.3-.1 2.1.5 3.4-2.2 3.1 0 .7.2 1.5-.6 1.8-.4.2-.8.2-1.2.2-1.3-.1-2.6.1-3.8-.2-.3-.1-.5-.4-.6-.7-.3-1.3-.4-2.8-.4-4.2zm5.7.1c0-.7-.2-2.9 1-2.4.3.2.5.4.6.8h.6c0-1.5-1.4-1.5-2.5-1.4h-3.9c-.3 0-.6.1-.6.4-.1.6-.1 1.2-.2 1.9-.1.4.1.6.4.8 1.5.8 3.3-1.7 4.6-.1zm-5.1 1.5V41c0 .2.1.4.3.4.6.1 1.2 0 1.8.1h2.7c.3 0 .3 0 .3-.3-.1-.7.3-1.8-.4-2.3-.7-.6-1.5-.1-2.2.1-.9.4-1.7 0-2.5-.5zm5.1 0v-.7s0-.1-.1-.1c-.5-.5-.8-1-1.5-.7-.8.2-1.5.6-2.3.6-.4-.1-.8-.3-1.1-.5v.8c0 .1 0 .1.1.2.6.5 1.5.8 2.4.3.7-.4 1.6-.7 2.5.1zm.6-2.1h3c0-.4 0-.4-.4-.4h-2.7c.1 0 .1.4.1.4zm1.2 3.2c.4-.1.5-.2.4-.5 0-.7-.1-1.3 0-2h-.4c.1.9.1 1.7 0 2.5zm-8.5-3.8c.1.1.1.3.2.4.2.3.6.1.8.3 0-.2 0-.4-.1-.6-.2-.1-.5-.1-.9-.1zm-1.8 9.5c4.7 0 9.4-.1 14.1.1.7 0 1.1.9.8 1.5 0 .7.2 1.4.2 2.1v7.5c-.1 1.1.3 3-1.2 3.2-4.5 0-9.1.2-13.6-.1-.1 0-.2-.1-.2-.1 0-.2-.2-.2-.3-.3-.4-.2-.5-.7-.6-1.1-.4-2.7-.1-5.5 0-8.2 0-1.2.1-2.3-.1-3.5 0-.6.4-1.1.9-1.1zm-.2 9.6c-.1 1.2 0 2.3.1 3.4 0 .3.4.6.6.6 1.5 0 3-.1 4.5-.1 2.9.1 5.8 0 8.6.2.2 0 .4-.1.6-.2s0-.2 0-.4v-.1c-.2-4-.1-8 .1-12-.1-.4-.1-.4-.5-.4-3.6.1-7.2 0-10.8 0h-2.8c-.3 0-.5.1-.5.4-.1 2.9.1 5.7.1 8.6z"/><path d="M196.7 51.4c.2-.7.4-1.8 1.3-1.6.1-.5.5-1 1.1-.9.7.2.5 1.2.6 1.8v.3c1.3-.1 2.6-.1 4 0 0-.6 0-1.1.1-1.7.3-.9 1.5-.3 1.5.4.9-.2 1.2.9 1.3 1.6 1.2-.2 1.4 1.5.3 1.6-.2 0-.2.1-.2.3.1.8 0 1.7-1 1.8-.1 0-.2 0-.2.2-.1.5-.4 1-1 .9-1.2-.3-.6-1.7-.7-2.6h-3.9c0 .6 0 1.3-.1 1.9s-1.2 1-1.5.3c-.1-.2-.1-.4-.2-.5 0-.1-.1-.1-.1-.1-1 0-1.1-1-1.1-1.9 0-.3-.3-.2-.5-.3-1.1-.3-.6-1.7.3-1.5.1 0 .1 0 0 0zm2.6.7c0-.5.4-3.2-.5-2.6-.1.1-.1.2-.1.3-.1.6.1 2.3 0 3.3.1.7-.2 1.8 0 2.3.2.4.7.1.7-.3-.1-1-.1-2-.1-3zm4.8.5c0 .9 0 1.7.1 2.6 0 .3.4.5.6.3.1-.2.2-.3.1-.5-.1-1.1 0-2.3-.1-3.4-.1-.6.2-1.3-.1-1.9 0-.1-.2-.2-.3-.2s-.2.1-.2.2c-.2.9 0 1.9-.1 2.9zm-.4-1h-3.3c.6.6 1.1 1.3 1.9 1.4h1.4v-1.4zm-5.7-1.2c-.1.1-.2.1-.3.2-.4 1-.2 2.2-.3 3.3 0 .4.1.5.5.6v-4.1h.1zm7.5 4.1c.5-.1.6-.1.5-.6-.1-1.1.2-2.3-.3-3.3 0-.1-.2-.1-.3-.2l.1 4.1zm-8.8-2.2V52l-.1.1c0 .1 0 .2.1.2zm10 0s.1 0 .1.1l.2-.2c-.1 0-.1-.1-.2-.1s-.1.1-.1.2z"/></g></svg>