<svg width="420" height="116" viewBox="0 0 420 116" fill="none" xmlns="http://www.w3.org/2000/svg">
<path d="M122 102.772V8.7622C122 6.11654 119.694 4 116.813 4H107.302V102.772H122Z" fill="#FCE6C1"/>
<path d="M107.398 100.302V4H104.901V100.302H90.2992V4H87.8016V100.302H19.5008V4H17.0992V100.302H0V104.8H122V100.302H107.398Z" fill="#37454D"/>
<path d="M53.6416 4.01746V13.0127H39.04V4.01746H53.6416ZM78.0416 4.01746V13.0127H63.44V4.01746H78.0416Z" fill="#FCE6C1"/>
<path d="M53.6416 15.2177V24.2129H39.04V15.2177H53.6416ZM78.0416 15.2177V24.2129H63.44V15.2177H78.0416Z" fill="#FCE6C1"/>
<path d="M53.6607 33.1377V42.133H39.0591V33.1377H53.6607ZM78.0607 33.1377V42.133H63.4591V33.1377H78.0607Z" fill="#FCE6C1"/>
<path d="M53.6607 44.3376V53.3329H39.0591V44.3376H53.6607ZM78.0607 44.3376V53.3329H63.4591V44.3376H78.0607Z" fill="#FCE6C1"/>
<path d="M29.3088 4.00879V100.311H19.5104V4.00879H29.3088Z" fill="#FCE6C1"/>
<path d="M76.8504 90.2487H73.2V74.5511C73.2 67.1432 66.6677 61.1464 58.5984 61.1464C50.5292 61.1464 43.9969 67.1432 43.9969 74.5511V90.1605H40.3465C39.674 90.1605 39.0977 90.6897 39.0977 91.307C39.0977 91.9243 39.674 92.4534 40.3465 92.4534H76.8504C77.5229 92.4534 78.0992 91.9243 78.0992 91.307C78.0992 90.6897 77.5229 90.2487 76.8504 90.2487ZM58.5984 63.3511C65.3229 63.3511 70.7984 68.3779 70.7984 74.5511H46.3984C46.3984 68.3779 51.874 63.3511 58.5984 63.3511ZM46.3984 90.2487V76.844H57.3496V90.2487H46.3984ZM59.7512 90.2487V76.844H70.7024V90.2487H59.7512Z" fill="#37454D"/>
<path d="M118.157 4.88189C119.791 4.88189 121.039 6.02835 121.039 7.52756V112.472C121.039 113.972 119.791 115.118 118.157 115.118H3.84252C2.20945 115.118 0.96063 113.972 0.96063 112.472V7.52756C0.96063 6.02835 2.20945 4.88189 3.84252 4.88189H118.157ZM118.157 4H3.84252C1.72913 4 0 5.5874 0 7.52756V112.472C0 114.413 1.72913 116 3.84252 116H118.157C120.271 116 122 114.413 122 112.472V7.52756C122 5.5874 120.271 4 118.157 4Z" fill="#EBECED"/>
<path fill-rule="evenodd" clip-rule="evenodd" d="M416.422 4.82C415.383 3.65 413.984 3 412.496 3C411.177 3 409.908 3.53 408.919 4.46C408.58 4.79 408.27 5.16 408 5.58C407.73 5.16 407.421 4.79 407.081 4.46C406.092 3.53 404.823 3 403.504 3C402.016 3 400.617 3.65 399.578 4.82C398.559 5.96 398 7.47 398 9.07C398 9.08 398.01 9.12 398.01 9.13V9.35C398.01 14.77 405.262 19.53 407.481 20.86C407.641 20.95 407.82 21 408 21C408.18 21 408.36 20.95 408.52 20.86C410.738 19.53 417.99 14.77 417.99 9.35V9.13C417.99 9.12 418 9.08 418 9.07C418 7.47 417.441 5.96 416.422 4.82Z" fill="#C94A30"/>
<path d="M416.422 4.82C415.383 3.65 413.984 3 412.496 3C411.177 3 409.908 3.53 408.919 4.46C408.58 4.79 408.27 5.16 408 5.58C407.73 5.16 407.421 4.79 407.081 4.46C406.092 3.53 404.823 3 403.504 3C402.016 3 400.617 3.65 399.578 4.82C398.559 5.96 398 7.47 398 9.07C398 9.08 398.01 9.12 398.01 9.13V9.35C398.01 14.77 405.262 19.53 407.481 20.86C407.641 20.95 407.82 21 408 21C408.18 21 408.36 20.95 408.52 20.86C410.738 19.53 417.99 14.77 417.99 9.35V9.13C417.99 9.12 418 9.08 418 9.07C418 7.47 417.441 5.96 416.422 4.82" stroke="white"/>
<rect x="142" y="4" width="228" height="16" fill="#CED0D2"/>
<rect x="142" y="59" width="96" height="16" fill="#EBECED"/>
<rect x="182" y="93" width="162" height="16" fill="#EBECED"/>
<path fill-rule="evenodd" clip-rule="evenodd" d="M156.986 39.5125C156.921 39.1687 156.648 38.9025 156.305 38.845L151.8 38.095L150.287 33.5688C150.177 33.23 149.858 33 149.5 33C149.141 33 148.822 33.23 148.71 33.57L147.2 38.095L142.696 38.845C142.352 38.9025 142.08 39.17 142.015 39.5113C141.95 39.8525 142.105 40.1987 142.405 40.38L146 42.5363L144.543 46.9025C144.427 47.2525 144.556 47.64 144.856 47.85C145 47.95 145.168 48 145.333 48C145.518 48 145.702 47.9375 145.853 47.8175L149.5 44.8988L153.146 47.815C153.296 47.9375 153.483 47.9987 153.666 47.9987C153.832 47.9987 154 47.9487 154.141 47.8487C154.446 47.6362 154.573 47.2513 154.456 46.9013L153 42.5363L156.595 40.38C156.896 40.2 157.051 39.8538 156.986 39.5125Z" fill="#CED0D2"/>
<path fill-rule="evenodd" clip-rule="evenodd" d="M173.986 39.5125C173.921 39.1687 173.648 38.9025 173.305 38.845L168.8 38.095L167.287 33.5688C167.177 33.23 166.858 33 166.5 33C166.141 33 165.822 33.23 165.71 33.57L164.2 38.095L159.696 38.845C159.352 38.9025 159.08 39.17 159.015 39.5113C158.95 39.8525 159.105 40.1987 159.405 40.38L163 42.5363L161.543 46.9025C161.427 47.2525 161.556 47.64 161.856 47.85C162 47.95 162.168 48 162.333 48C162.518 48 162.702 47.9375 162.853 47.8175L166.5 44.8988L170.146 47.815C170.296 47.9375 170.483 47.9987 170.666 47.9987C170.832 47.9987 171 47.9487 171.141 47.8487C171.446 47.6362 171.573 47.2513 171.456 46.9013L170 42.5363L173.595 40.38C173.896 40.2 174.051 39.8538 173.986 39.5125Z" fill="#CED0D2"/>
<path fill-rule="evenodd" clip-rule="evenodd" d="M190.986 39.5125C190.921 39.1687 190.648 38.9025 190.305 38.845L185.8 38.095L184.287 33.5688C184.177 33.23 183.858 33 183.5 33C183.141 33 182.822 33.23 182.71 33.57L181.2 38.095L176.696 38.845C176.352 38.9025 176.08 39.17 176.015 39.5113C175.95 39.8525 176.105 40.1987 176.405 40.38L180 42.5363L178.543 46.9025C178.427 47.2525 178.556 47.64 178.856 47.85C179 47.95 179.168 48 179.333 48C179.518 48 179.702 47.9375 179.853 47.8175L183.5 44.8988L187.146 47.815C187.296 47.9375 187.483 47.9987 187.666 47.9987C187.832 47.9987 188 47.9487 188.141 47.8487C188.446 47.6362 188.573 47.2513 188.456 46.9013L187 42.5363L190.595 40.38C190.896 40.2 191.051 39.8538 190.986 39.5125Z" fill="#CED0D2"/>
<path fill-rule="evenodd" clip-rule="evenodd" d="M207.986 39.5125C207.921 39.1687 207.648 38.9025 207.305 38.845L202.8 38.095L201.287 33.5688C201.177 33.23 200.858 33 200.5 33C200.141 33 199.822 33.23 199.71 33.57L198.2 38.095L193.696 38.845C193.352 38.9025 193.08 39.17 193.015 39.5113C192.95 39.8525 193.105 40.1987 193.405 40.38L197 42.5363L195.543 46.9025C195.427 47.2525 195.556 47.64 195.856 47.85C196 47.95 196.168 48 196.333 48C196.518 48 196.702 47.9375 196.853 47.8175L200.5 44.8988L204.146 47.815C204.296 47.9375 204.483 47.9987 204.666 47.9987C204.832 47.9987 205 47.9487 205.141 47.8487C205.446 47.6362 205.573 47.2513 205.456 46.9013L204 42.5363L207.595 40.38C207.896 40.2 208.051 39.8538 207.986 39.5125Z" fill="#CED0D2"/>
<rect x="141" y="84" width="32" height="32" rx="3" fill="#EBECED"/>
<rect x="147" y="95" width="19" height="10" fill="#CED0D2"/>
</svg>
