<svg xmlns="http://www.w3.org/2000/svg" width="24" height="24" viewBox="0 0 24 24" class="pointer-events-none max-h-full max-w-full h-full w-full"><g fill="#fff"><circle cx="12" cy="12" r="2.25"></circle><path d="M17.49 9.27A3.85 3.85 0 0017.26 8a2 2 0 00-.51-.77 2 2 0 00-.75-.49 3.85 3.85 0 00-1.25-.23H9.29A3.85 3.85 0 008 6.74a2 2 0 00-.77.51 2 2 0 00-.49.75 3.85 3.85 0 00-.23 1.25v5.46A3.85 3.85 0 006.74 16a2 2 0 00.51.77 2 2 0 00.77.51 3.85 3.85 0 001.25.23h5.46a3.85 3.85 0 001.27-.25A2.32 2.32 0 0017.26 16a3.85 3.85 0 00.23-1.25v-2.73c0-1.8.03-2.02 0-2.75zM12 15.46A3.46 3.46 0 1115.46 12 3.46 3.46 0 0112 15.46zm3.6-6.25a.81.81 0 11.81-.81.81.81 0 01-.81.81z"></path><path d="M12 2a10 10 0 1010 10A10 10 0 0012 2zm6.7 12.78a4.82 4.82 0 01-.31 1.64 3.49 3.49 0 01-2 2 4.82 4.82 0 01-1.64.31c-.72 0-.95.05-2.78.05s-2.06 0-2.78-.05a4.82 4.82 0 01-1.64-.31 3.19 3.19 0 01-1.19-.78 3.19 3.19 0 01-.78-1.19 4.82 4.82 0 01-.31-1.64v-2.78-2.78a4.82 4.82 0 01.31-1.64 3.19 3.19 0 01.78-1.19 3.19 3.19 0 011.19-.78 5 5 0 011.64-.32h5.56a5 5 0 011.64.32 3.19 3.19 0 011.19.78 3.19 3.19 0 01.78 1.19 4.82 4.82 0 01.31 1.64c0 .72.05.95.05 2.78s.02 2.03-.02 2.75z"></path></g></svg>