<svg xmlns="http://www.w3.org/2000/svg" width="24" height="24" viewBox="0 0 24 24" class="pointer-events-none max-h-full max-w-full h-full w-full"><path d="M12 2a10 10 0 1010 10A10 10 0 0012 2zm5.62 7.86v.44a7.91 7.91 0 01-8 7.87A8 8 0 015.41 17h.44a6.3 6.3 0 003.78-1.3h-.2a2.68 2.68 0 01-2.56-1.92 2.32 2.32 0 00.53.05 2.9 2.9 0 00.79-.11 2.58 2.58 0 01-1.43-.67 2.66 2.66 0 01-.88-2 .57.57 0 010-.13 2.58 2.58 0 001.27.32 2.68 2.68 0 01-1.06-1.15h-.07a2.63 2.63 0 01-.22-1 2.53 2.53 0 01.41-1.41 6.72 6.72 0 00.9 1 1 1 0 00.19.17 7.7 7.7 0 002.18 1.07l.33.12a9 9 0 001 .28h.27a7.6 7.6 0 001 .09 2.59 2.59 0 01-.08-.58 2.66 2.66 0 01.24-1.13 2.47 2.47 0 01.52-.79 1.54 1.54 0 01.24-.26A2.76 2.76 0 0114.82 7a2.74 2.74 0 012.05.92l.35-.09a7.06 7.06 0 001.42-.58.88.88 0 01-.07.23 2.29 2.29 0 01-1.11 1.26v.09A6 6 0 0019 8.37a8.87 8.87 0 01-1.38 1.49z" fill="#fff"></path></svg>